M48
; DRILL file {KiCad (5.1.0)-1} date 13/05/2019 18:05:58
; FORMAT={-:-/ absolute / metric / decimal}
; #@! TF.CreationDate,2019-05-13T18:05:58+02:00
; #@! TF.GenerationSoftware,Kicad,Pcbnew,(5.1.0)-1
; #@! TF.FileFunction,Plated,1,2,PTH
FMAT,2
METRIC
T1C0.400
T2C0.500
T3C0.600
T4C0.750
T5C0.800
T6C0.900
T7C1.000
T8C1.016
%
G90
G05
T1
X51.0Y-124.4
X52.165Y-119.9
X53.9Y-126.911
X54.484Y-128.486
X54.7Y-127.2
X55.375Y-128.5
X57.8Y-128.5
X57.983Y-125.919
X58.0Y-116.5
X58.1Y-122.3
X58.1Y-138.0
X60.5Y-108.9
X60.676Y-145.629
X60.907Y-138.418
X62.5Y-80.75
X63.0Y-93.5
X63.1Y-111.95
X63.475Y-138.4
X64.2Y-111.0
X65.2Y-141.225
X65.271Y-148.171
X65.55Y-126.75
X65.572Y-112.45
X65.6Y-122.5
X65.9Y-138.4
X66.011Y-113.178
X66.3Y-144.6
X66.395Y-142.095
X67.1Y-126.5
X67.178Y-96.822
X67.4Y-115.4
X67.606Y-104.545
X68.0Y-117.8
X68.207Y-103.944
X68.4Y-109.7
X68.5Y-108.1
X68.8Y-122.408
X68.878Y-112.601
X69.65Y-92.5
X69.9Y-90.9
X70.0Y-108.2
X70.203Y-103.703
X70.5Y-92.5
X70.75Y-90.9
X71.3Y-129.3
X71.35Y-133.5
X71.358Y-143.236
X71.49Y-51.76
X71.56Y-141.74
X71.565Y-113.6
X71.7Y-132.123
X72.0Y-98.3
X72.009Y-127.284
X72.012Y-101.318
X72.05Y-138.7
X72.1Y-106.8
X72.875Y-50.625
X72.9Y-120.0
X73.0Y-108.9
X73.2Y-106.3
X73.209Y-127.2
X73.25Y-137.3
X73.4Y-138.8
X73.622Y-118.524
X73.8Y-128.05
X73.8Y-128.9
X74.8Y-108.3
X75.5Y-77.4
X75.5Y-78.25
X75.5Y-101.8
X75.7Y-126.8
X75.75Y-95.25
X75.8Y-143.2
X76.647Y-93.836
X76.799Y-109.119
X77.0Y-101.8
X77.1Y-76.5
X77.1Y-77.5
X77.22Y-96.53
X77.28Y-94.47
X77.8Y-102.7
X77.821Y-97.131
X77.97Y-107.973
X78.0Y-95.0
X79.173Y-128.0
X79.654Y-98.111
X79.75Y-96.611
X80.0Y-114.1
X80.175Y-102.5
X80.46Y-133.8
X80.5Y-99.0
X80.5Y-131.7
X80.8Y-139.1
X80.9Y-146.75
X81.0Y-136.6
X81.1Y-141.3
X81.375Y-107.25
X81.6Y-128.5
X81.6Y-108.5
X82.1Y-103.6
X82.529Y-86.971
X83.915Y-128.536
X84.0Y-97.5
X84.132Y-100.95
X84.9Y-128.4
X85.2Y-138.8
X88.0Y-133.0
X91.1Y-109.5
X91.3Y-51.6
X91.7Y-107.434
X94.0Y-79.8
X95.2Y-97.5
X95.25Y-63.25
X97.0Y-78.5
X97.224Y-102.224
X98.0Y-120.5
X100.0Y-80.0
X101.0Y-105.5
X101.5Y-136.5
X108.352Y-139.377
X108.8Y-140.9
X108.9Y-104.5
X112.0Y-68.25
X112.5Y-50.625
X112.7Y-70.0
X114.25Y-118.25
X115.0Y-109.5
X119.0Y-116.25
X120.75Y-120.25
X121.5Y-125.0
X121.9Y-105.75
X122.15Y-135.0
X123.224Y-106.626
X124.732Y-52.018
X125.6Y-120.25
X125.795Y-51.993
X126.75Y-148.0
X127.0Y-111.75
X127.0Y-117.75
X127.9Y-113.35
X128.0Y-116.1
X128.7Y-79.5
X128.7Y-94.0
X128.7Y-92.2
X128.75Y-80.5
X128.75Y-113.35
X129.0Y-115.25
X129.0Y-133.75
X129.1Y-125.25
X129.1Y-112.5
X130.75Y-93.95
X130.8Y-114.75
X131.6Y-113.5
X131.6Y-125.25
X131.6Y-112.65
X131.65Y-79.45
X132.55Y-80.5
X134.25Y-112.75
X135.25Y-138.5
X135.5Y-139.5
X135.89Y-119.25
X136.86Y-132.0
X138.0Y-105.5
X138.06Y-125.0
X138.06Y-132.0
X138.25Y-113.5
X140.0Y-139.5
X141.0Y-114.75
X141.232Y-116.787
X141.25Y-113.75
X142.5Y-118.55
X142.5Y-121.0
X144.75Y-118.75
X145.5Y-108.95
X147.953Y-112.953
X148.174Y-114.924
X148.554Y-112.352
X148.775Y-111.5
X148.92Y-114.517
X149.125Y-115.75
T4
X92.5Y-66.96
X92.5Y-68.23
X92.5Y-69.5
X92.5Y-55.0
X92.5Y-56.27
X92.5Y-57.54
T5
X86.0Y-85.72
X86.0Y-90.6
X107.0Y-67.0
X107.0Y-69.5
X96.0Y-101.0
X96.0Y-103.54
X96.0Y-106.08
X96.0Y-108.62
X96.0Y-111.16
X96.0Y-113.7
X96.0Y-116.24
X96.0Y-118.78
X103.62Y-101.0
X103.62Y-103.54
X103.62Y-106.08
X103.62Y-108.62
X103.62Y-111.16
X103.62Y-113.7
X103.62Y-116.24
X103.62Y-118.78
X93.0Y-125.0
X100.6Y-125.0
T6
X117.5Y-94.75
X120.0Y-89.75
X122.5Y-94.75
X69.815Y-145.741
X69.815Y-148.281
X69.815Y-121.255
X69.815Y-123.795
X69.815Y-111.46
X69.815Y-114.0
X51.565Y-115.96
X51.565Y-118.5
X87.065Y-136.183
X87.065Y-138.723
X117.5Y-108.5
X120.0Y-103.5
X122.5Y-108.5
X69.815Y-126.152
X69.815Y-128.692
X69.815Y-135.947
X69.815Y-138.487
X69.815Y-140.844
X69.815Y-143.384
X51.565Y-136.125
X51.565Y-138.665
X69.815Y-116.357
X69.815Y-118.897
X69.815Y-131.049
X69.815Y-133.589
X95.46Y-130.0
X98.0Y-130.0
X87.065Y-116.25
X87.065Y-118.79
X87.25Y-146.21
X87.25Y-148.75
X51.5Y-125.96
X51.5Y-128.5
X51.5Y-146.21
X51.5Y-148.75
X87.065Y-126.286
X87.065Y-128.826
T7
X117.5Y-97.5
X120.0Y-97.5
X122.5Y-97.5
X57.5Y-82.5
X60.0Y-82.5
X62.5Y-82.5
X78.21Y-83.5
X78.21Y-86.04
X78.21Y-88.58
X80.75Y-83.5
X80.75Y-86.04
X80.75Y-88.58
X92.0Y-73.92
X92.0Y-76.46
X92.0Y-79.0
X57.5Y-67.5
X60.0Y-67.5
X62.5Y-67.5
X97.5Y-97.5
X100.0Y-97.5
X102.5Y-97.5
X117.5Y-52.5
X120.0Y-52.5
X122.5Y-52.5
X57.5Y-97.5
X60.0Y-97.5
X62.5Y-97.5
X97.5Y-82.5
X100.0Y-82.5
X102.5Y-82.5
X87.0Y-98.3
X87.0Y-100.84
X87.0Y-103.38
X87.0Y-105.92
X87.0Y-108.46
X87.0Y-111.0
X107.0Y-56.0
X107.0Y-58.54
X117.5Y-82.5
X120.0Y-82.5
X122.5Y-82.5
X117.5Y-67.5
X120.0Y-67.5
X122.5Y-67.5
X137.5Y-67.5
X140.0Y-67.5
X142.5Y-67.5
X57.5Y-52.5
X60.0Y-52.5
X62.5Y-52.5
X76.25Y-67.5
X78.75Y-67.5
X81.25Y-67.5
X76.25Y-52.5
X78.75Y-52.5
X81.25Y-52.5
X137.5Y-97.5
X140.0Y-97.5
X142.5Y-97.5
T8
X128.8Y-53.62
X128.8Y-56.16
X128.8Y-58.7
X128.8Y-61.24
X128.8Y-63.78
X128.8Y-66.32
X128.8Y-68.86
X128.8Y-71.4
X131.34Y-53.62
X131.34Y-56.16
X131.34Y-58.7
X131.34Y-61.24
X131.34Y-63.78
X131.34Y-66.32
X131.34Y-68.86
X131.34Y-71.4
X68.25Y-54.22
X68.25Y-56.76
X68.25Y-59.3
X68.25Y-61.84
X68.25Y-64.38
X68.25Y-66.92
X68.25Y-69.46
X68.25Y-72.0
X70.79Y-54.22
X70.79Y-56.76
X70.79Y-59.3
X70.79Y-61.84
X70.79Y-64.38
X70.79Y-66.92
X70.79Y-69.46
X70.79Y-72.0
X99.0Y-54.22
X99.0Y-56.76
X99.0Y-59.3
X99.0Y-61.84
X99.0Y-64.38
X99.0Y-66.92
X99.0Y-69.46
X99.0Y-72.0
X101.54Y-54.22
X101.54Y-56.76
X101.54Y-59.3
X101.54Y-61.84
X101.54Y-64.38
X101.54Y-66.92
X101.54Y-69.46
X101.54Y-72.0
T2
G00X73.83Y-125.8
M15
G01X73.83Y-124.2
M16
G05
G00X73.83Y-115.8
M15
G01X73.83Y-114.2
M16
G05
G00X124.92Y-124.2
M15
G01X124.92Y-125.8
M16
G05
G00X124.92Y-134.2
M15
G01X124.92Y-135.8
M16
G05
G00X64.92Y-114.2
M15
G01X64.92Y-115.8
M16
G05
G00X124.92Y-144.2
M15
G01X124.92Y-145.8
M16
G05
G00X135.08Y-135.8
M15
G01X135.08Y-134.2
M16
G05
G00X73.83Y-135.8
M15
G01X73.83Y-134.2
M16
G05
G00X95.08Y-125.8
M15
G01X95.08Y-124.2
M16
G05
G00X95.08Y-135.8
M15
G01X95.08Y-134.2
M16
G05
G00X64.92Y-134.2
M15
G01X64.92Y-135.8
M16
G05
G00X135.08Y-145.8
M15
G01X135.08Y-144.2
M16
G05
G00X135.08Y-125.8
M15
G01X135.08Y-124.2
M16
G05
G00X95.08Y-145.8
M15
G01X95.08Y-144.2
M16
G05
G00X73.83Y-145.8
M15
G01X73.83Y-144.2
M16
G05
G00X64.92Y-144.2
M15
G01X64.92Y-145.8
M16
G05
G00X64.92Y-124.2
M15
G01X64.92Y-125.8
M16
G05
T3
G00X113.52Y-134.6
M15
G01X113.52Y-135.4
M16
G05
G00X116.62Y-134.3
M15
G01X116.62Y-135.7
M16
G05
G00X53.52Y-114.6
M15
G01X53.52Y-115.4
M16
G05
G00X56.62Y-114.3
M15
G01X56.62Y-115.7
M16
G05
G00X113.52Y-144.6
M15
G01X113.52Y-145.4
M16
G05
G00X116.62Y-144.3
M15
G01X116.62Y-145.7
M16
G05
G00X143.38Y-135.7
M15
G01X143.38Y-134.3
M16
G05
G00X146.48Y-135.4
M15
G01X146.48Y-134.6
M16
G05
G00X82.13Y-135.7
M15
G01X82.13Y-134.3
M16
G05
G00X85.23Y-135.4
M15
G01X85.23Y-134.6
M16
G05
G00X103.38Y-125.7
M15
G01X103.38Y-124.3
M16
G05
G00X106.48Y-125.4
M15
G01X106.48Y-124.6
M16
G05
G00X103.38Y-135.7
M15
G01X103.38Y-134.3
M16
G05
G00X106.48Y-135.4
M15
G01X106.48Y-134.6
M16
G05
G00X53.52Y-134.6
M15
G01X53.52Y-135.4
M16
G05
G00X56.62Y-134.3
M15
G01X56.62Y-135.7
M16
G05
G00X143.38Y-145.7
M15
G01X143.38Y-144.3
M16
G05
G00X146.48Y-145.4
M15
G01X146.48Y-144.6
M16
G05
G00X143.38Y-125.7
M15
G01X143.38Y-124.3
M16
G05
G00X146.48Y-125.4
M15
G01X146.48Y-124.6
M16
G05
G00X103.38Y-145.7
M15
G01X103.38Y-144.3
M16
G05
G00X106.48Y-145.4
M15
G01X106.48Y-144.6
M16
G05
G00X82.13Y-145.7
M15
G01X82.13Y-144.3
M16
G05
G00X85.23Y-145.4
M15
G01X85.23Y-144.6
M16
G05
G00X53.52Y-144.6
M15
G01X53.52Y-145.4
M16
G05
G00X56.62Y-144.3
M15
G01X56.62Y-145.7
M16
G05
G00X53.52Y-124.6
M15
G01X53.52Y-125.4
M16
G05
G00X56.62Y-124.3
M15
G01X56.62Y-125.7
M16
G05
G00X82.13Y-125.7
M15
G01X82.13Y-124.3
M16
G05
G00X85.23Y-125.4
M15
G01X85.23Y-124.6
M16
G05
G00X82.13Y-115.7
M15
G01X82.13Y-114.3
M16
G05
G00X85.23Y-115.4
M15
G01X85.23Y-114.6
M16
G05
G00X113.52Y-124.6
M15
G01X113.52Y-125.4
M16
G05
G00X116.62Y-124.3
M15
G01X116.62Y-125.7
M16
G05
T7
G00X139.6Y-85.3
M15
G01X140.9Y-85.3
M16
G05
G00X139.6Y-90.0
M15
G01X140.9Y-90.0
M16
G05
G00X139.6Y-94.7
M15
G01X140.9Y-94.7
M16
G05
G00X140.65Y-55.3
M15
G01X139.35Y-55.3
M16
G05
G00X140.65Y-60.0
M15
G01X139.35Y-60.0
M16
G05
G00X140.65Y-64.7
M15
G01X139.35Y-64.7
M16
G05
T0
M30
