M48
; DRILL file {KiCad (5.1.0)-1} date 13/05/2019 18:05:58
; FORMAT={-:-/ absolute / metric / decimal}
; #@! TF.CreationDate,2019-05-13T18:05:58+02:00
; #@! TF.GenerationSoftware,Kicad,Pcbnew,(5.1.0)-1
; #@! TF.FileFunction,NonPlated,1,2,NPTH
FMAT,2
METRIC
T1C2.000
%
G90
G05
T1
G00X55.6Y-74.0
M15
G01X55.6Y-75.0
M16
G05
G00X64.4Y-74.0
M15
G01X64.4Y-75.0
M16
G05
G00X95.6Y-91.0
M15
G01X95.6Y-90.0
M16
G05
G00X104.4Y-91.0
M15
G01X104.4Y-90.0
M16
G05
G00X115.6Y-59.0
M15
G01X115.6Y-60.0
M16
G05
G00X124.4Y-59.0
M15
G01X124.4Y-60.0
M16
G05
G00X55.6Y-104.0
M15
G01X55.6Y-105.0
M16
G05
G00X64.4Y-104.0
M15
G01X64.4Y-105.0
M16
G05
G00X95.6Y-76.0
M15
G01X95.6Y-75.0
M16
G05
G00X104.4Y-76.0
M15
G01X104.4Y-75.0
M16
G05
G00X115.6Y-89.0
M15
G01X115.6Y-90.0
M16
G05
G00X124.4Y-89.0
M15
G01X124.4Y-90.0
M16
G05
G00X115.6Y-74.0
M15
G01X115.6Y-75.0
M16
G05
G00X124.4Y-74.0
M15
G01X124.4Y-75.0
M16
G05
G00X135.6Y-74.0
M15
G01X135.6Y-75.0
M16
G05
G00X144.4Y-74.0
M15
G01X144.4Y-75.0
M16
G05
G00X55.6Y-59.0
M15
G01X55.6Y-60.0
M16
G05
G00X64.4Y-59.0
M15
G01X64.4Y-60.0
M16
G05
G00X74.35Y-74.0
M15
G01X74.35Y-75.0
M16
G05
G00X83.15Y-74.0
M15
G01X83.15Y-75.0
M16
G05
G00X74.35Y-59.0
M15
G01X74.35Y-60.0
M16
G05
G00X83.15Y-59.0
M15
G01X83.15Y-60.0
M16
G05
G00X135.6Y-104.0
M15
G01X135.6Y-105.0
M16
G05
G00X144.4Y-104.0
M15
G01X144.4Y-105.0
M16
G05
G00X115.6Y-104.0
M15
G01X115.6Y-105.0
M16
G05
G00X124.4Y-104.0
M15
G01X124.4Y-105.0
M16
G05
G00X55.6Y-89.0
M15
G01X55.6Y-90.0
M16
G05
G00X64.4Y-89.0
M15
G01X64.4Y-90.0
M16
G05
T0
M30
