G04 #@! TF.GenerationSoftware,KiCad,Pcbnew,(5.1.0)-1*
G04 #@! TF.CreationDate,2019-05-13T18:05:39+02:00*
G04 #@! TF.ProjectId,KicadJE_ADSR_Mega32,4b696361-644a-4455-9f41-4453525f4d65,rev?*
G04 #@! TF.SameCoordinates,Original*
G04 #@! TF.FileFunction,Paste,Top*
G04 #@! TF.FilePolarity,Positive*
%FSLAX46Y46*%
G04 Gerber Fmt 4.6, Leading zero omitted, Abs format (unit mm)*
G04 Created by KiCad (PCBNEW (5.1.0)-1) date 2019-05-13 18:05:39*
%MOMM*%
%LPD*%
G04 APERTURE LIST*
%ADD10C,1.000000*%
%ADD11C,0.050000*%
%ADD12C,0.150000*%
%ADD13C,1.150000*%
%ADD14R,1.200000X0.900000*%
%ADD15R,1.300000X1.700000*%
%ADD16C,1.425000*%
%ADD17R,1.900000X0.800000*%
G04 APERTURE END LIST*
D10*
X89000000Y-60000000D02*
X90000000Y-60000000D01*
X110000000Y-60000000D02*
X111000000Y-60000000D01*
X110000000Y-140000000D02*
X111000000Y-140000000D01*
X89000000Y-140000000D02*
X90000000Y-140000000D01*
X110000000Y-60000000D02*
X110000000Y-140000000D01*
X111000000Y-60000000D02*
X111000000Y-140000000D01*
X90000000Y-60000000D02*
X90000000Y-140000000D01*
X89000000Y-60000000D02*
X89000000Y-140000000D01*
D11*
X50000000Y-150000000D02*
X50000000Y-50000000D01*
X150000000Y-150000000D02*
X50000000Y-150000000D01*
X150000000Y-50000000D02*
X150000000Y-150000000D01*
X50000000Y-50000000D02*
X150000000Y-50000000D01*
D12*
G36*
X84724505Y-90401204D02*
G01*
X84748773Y-90404804D01*
X84772572Y-90410765D01*
X84795671Y-90419030D01*
X84817850Y-90429520D01*
X84838893Y-90442132D01*
X84858599Y-90456747D01*
X84876777Y-90473223D01*
X84893253Y-90491401D01*
X84907868Y-90511107D01*
X84920480Y-90532150D01*
X84930970Y-90554329D01*
X84939235Y-90577428D01*
X84945196Y-90601227D01*
X84948796Y-90625495D01*
X84950000Y-90649999D01*
X84950000Y-91300001D01*
X84948796Y-91324505D01*
X84945196Y-91348773D01*
X84939235Y-91372572D01*
X84930970Y-91395671D01*
X84920480Y-91417850D01*
X84907868Y-91438893D01*
X84893253Y-91458599D01*
X84876777Y-91476777D01*
X84858599Y-91493253D01*
X84838893Y-91507868D01*
X84817850Y-91520480D01*
X84795671Y-91530970D01*
X84772572Y-91539235D01*
X84748773Y-91545196D01*
X84724505Y-91548796D01*
X84700001Y-91550000D01*
X83799999Y-91550000D01*
X83775495Y-91548796D01*
X83751227Y-91545196D01*
X83727428Y-91539235D01*
X83704329Y-91530970D01*
X83682150Y-91520480D01*
X83661107Y-91507868D01*
X83641401Y-91493253D01*
X83623223Y-91476777D01*
X83606747Y-91458599D01*
X83592132Y-91438893D01*
X83579520Y-91417850D01*
X83569030Y-91395671D01*
X83560765Y-91372572D01*
X83554804Y-91348773D01*
X83551204Y-91324505D01*
X83550000Y-91300001D01*
X83550000Y-90649999D01*
X83551204Y-90625495D01*
X83554804Y-90601227D01*
X83560765Y-90577428D01*
X83569030Y-90554329D01*
X83579520Y-90532150D01*
X83592132Y-90511107D01*
X83606747Y-90491401D01*
X83623223Y-90473223D01*
X83641401Y-90456747D01*
X83661107Y-90442132D01*
X83682150Y-90429520D01*
X83704329Y-90419030D01*
X83727428Y-90410765D01*
X83751227Y-90404804D01*
X83775495Y-90401204D01*
X83799999Y-90400000D01*
X84700001Y-90400000D01*
X84724505Y-90401204D01*
X84724505Y-90401204D01*
G37*
D13*
X84250000Y-90975000D03*
D12*
G36*
X84724505Y-92451204D02*
G01*
X84748773Y-92454804D01*
X84772572Y-92460765D01*
X84795671Y-92469030D01*
X84817850Y-92479520D01*
X84838893Y-92492132D01*
X84858599Y-92506747D01*
X84876777Y-92523223D01*
X84893253Y-92541401D01*
X84907868Y-92561107D01*
X84920480Y-92582150D01*
X84930970Y-92604329D01*
X84939235Y-92627428D01*
X84945196Y-92651227D01*
X84948796Y-92675495D01*
X84950000Y-92699999D01*
X84950000Y-93350001D01*
X84948796Y-93374505D01*
X84945196Y-93398773D01*
X84939235Y-93422572D01*
X84930970Y-93445671D01*
X84920480Y-93467850D01*
X84907868Y-93488893D01*
X84893253Y-93508599D01*
X84876777Y-93526777D01*
X84858599Y-93543253D01*
X84838893Y-93557868D01*
X84817850Y-93570480D01*
X84795671Y-93580970D01*
X84772572Y-93589235D01*
X84748773Y-93595196D01*
X84724505Y-93598796D01*
X84700001Y-93600000D01*
X83799999Y-93600000D01*
X83775495Y-93598796D01*
X83751227Y-93595196D01*
X83727428Y-93589235D01*
X83704329Y-93580970D01*
X83682150Y-93570480D01*
X83661107Y-93557868D01*
X83641401Y-93543253D01*
X83623223Y-93526777D01*
X83606747Y-93508599D01*
X83592132Y-93488893D01*
X83579520Y-93467850D01*
X83569030Y-93445671D01*
X83560765Y-93422572D01*
X83554804Y-93398773D01*
X83551204Y-93374505D01*
X83550000Y-93350001D01*
X83550000Y-92699999D01*
X83551204Y-92675495D01*
X83554804Y-92651227D01*
X83560765Y-92627428D01*
X83569030Y-92604329D01*
X83579520Y-92582150D01*
X83592132Y-92561107D01*
X83606747Y-92541401D01*
X83623223Y-92523223D01*
X83641401Y-92506747D01*
X83661107Y-92492132D01*
X83682150Y-92479520D01*
X83704329Y-92469030D01*
X83727428Y-92460765D01*
X83751227Y-92454804D01*
X83775495Y-92451204D01*
X83799999Y-92450000D01*
X84700001Y-92450000D01*
X84724505Y-92451204D01*
X84724505Y-92451204D01*
G37*
D13*
X84250000Y-93025000D03*
D12*
G36*
X84724505Y-88701204D02*
G01*
X84748773Y-88704804D01*
X84772572Y-88710765D01*
X84795671Y-88719030D01*
X84817850Y-88729520D01*
X84838893Y-88742132D01*
X84858599Y-88756747D01*
X84876777Y-88773223D01*
X84893253Y-88791401D01*
X84907868Y-88811107D01*
X84920480Y-88832150D01*
X84930970Y-88854329D01*
X84939235Y-88877428D01*
X84945196Y-88901227D01*
X84948796Y-88925495D01*
X84950000Y-88949999D01*
X84950000Y-89600001D01*
X84948796Y-89624505D01*
X84945196Y-89648773D01*
X84939235Y-89672572D01*
X84930970Y-89695671D01*
X84920480Y-89717850D01*
X84907868Y-89738893D01*
X84893253Y-89758599D01*
X84876777Y-89776777D01*
X84858599Y-89793253D01*
X84838893Y-89807868D01*
X84817850Y-89820480D01*
X84795671Y-89830970D01*
X84772572Y-89839235D01*
X84748773Y-89845196D01*
X84724505Y-89848796D01*
X84700001Y-89850000D01*
X83799999Y-89850000D01*
X83775495Y-89848796D01*
X83751227Y-89845196D01*
X83727428Y-89839235D01*
X83704329Y-89830970D01*
X83682150Y-89820480D01*
X83661107Y-89807868D01*
X83641401Y-89793253D01*
X83623223Y-89776777D01*
X83606747Y-89758599D01*
X83592132Y-89738893D01*
X83579520Y-89717850D01*
X83569030Y-89695671D01*
X83560765Y-89672572D01*
X83554804Y-89648773D01*
X83551204Y-89624505D01*
X83550000Y-89600001D01*
X83550000Y-88949999D01*
X83551204Y-88925495D01*
X83554804Y-88901227D01*
X83560765Y-88877428D01*
X83569030Y-88854329D01*
X83579520Y-88832150D01*
X83592132Y-88811107D01*
X83606747Y-88791401D01*
X83623223Y-88773223D01*
X83641401Y-88756747D01*
X83661107Y-88742132D01*
X83682150Y-88729520D01*
X83704329Y-88719030D01*
X83727428Y-88710765D01*
X83751227Y-88704804D01*
X83775495Y-88701204D01*
X83799999Y-88700000D01*
X84700001Y-88700000D01*
X84724505Y-88701204D01*
X84724505Y-88701204D01*
G37*
D13*
X84250000Y-89275000D03*
D12*
G36*
X84724505Y-86651204D02*
G01*
X84748773Y-86654804D01*
X84772572Y-86660765D01*
X84795671Y-86669030D01*
X84817850Y-86679520D01*
X84838893Y-86692132D01*
X84858599Y-86706747D01*
X84876777Y-86723223D01*
X84893253Y-86741401D01*
X84907868Y-86761107D01*
X84920480Y-86782150D01*
X84930970Y-86804329D01*
X84939235Y-86827428D01*
X84945196Y-86851227D01*
X84948796Y-86875495D01*
X84950000Y-86899999D01*
X84950000Y-87550001D01*
X84948796Y-87574505D01*
X84945196Y-87598773D01*
X84939235Y-87622572D01*
X84930970Y-87645671D01*
X84920480Y-87667850D01*
X84907868Y-87688893D01*
X84893253Y-87708599D01*
X84876777Y-87726777D01*
X84858599Y-87743253D01*
X84838893Y-87757868D01*
X84817850Y-87770480D01*
X84795671Y-87780970D01*
X84772572Y-87789235D01*
X84748773Y-87795196D01*
X84724505Y-87798796D01*
X84700001Y-87800000D01*
X83799999Y-87800000D01*
X83775495Y-87798796D01*
X83751227Y-87795196D01*
X83727428Y-87789235D01*
X83704329Y-87780970D01*
X83682150Y-87770480D01*
X83661107Y-87757868D01*
X83641401Y-87743253D01*
X83623223Y-87726777D01*
X83606747Y-87708599D01*
X83592132Y-87688893D01*
X83579520Y-87667850D01*
X83569030Y-87645671D01*
X83560765Y-87622572D01*
X83554804Y-87598773D01*
X83551204Y-87574505D01*
X83550000Y-87550001D01*
X83550000Y-86899999D01*
X83551204Y-86875495D01*
X83554804Y-86851227D01*
X83560765Y-86827428D01*
X83569030Y-86804329D01*
X83579520Y-86782150D01*
X83592132Y-86761107D01*
X83606747Y-86741401D01*
X83623223Y-86723223D01*
X83641401Y-86706747D01*
X83661107Y-86692132D01*
X83682150Y-86679520D01*
X83704329Y-86669030D01*
X83727428Y-86660765D01*
X83751227Y-86654804D01*
X83775495Y-86651204D01*
X83799999Y-86650000D01*
X84700001Y-86650000D01*
X84724505Y-86651204D01*
X84724505Y-86651204D01*
G37*
D13*
X84250000Y-87225000D03*
D12*
G36*
X106224505Y-100651204D02*
G01*
X106248773Y-100654804D01*
X106272572Y-100660765D01*
X106295671Y-100669030D01*
X106317850Y-100679520D01*
X106338893Y-100692132D01*
X106358599Y-100706747D01*
X106376777Y-100723223D01*
X106393253Y-100741401D01*
X106407868Y-100761107D01*
X106420480Y-100782150D01*
X106430970Y-100804329D01*
X106439235Y-100827428D01*
X106445196Y-100851227D01*
X106448796Y-100875495D01*
X106450000Y-100899999D01*
X106450000Y-101550001D01*
X106448796Y-101574505D01*
X106445196Y-101598773D01*
X106439235Y-101622572D01*
X106430970Y-101645671D01*
X106420480Y-101667850D01*
X106407868Y-101688893D01*
X106393253Y-101708599D01*
X106376777Y-101726777D01*
X106358599Y-101743253D01*
X106338893Y-101757868D01*
X106317850Y-101770480D01*
X106295671Y-101780970D01*
X106272572Y-101789235D01*
X106248773Y-101795196D01*
X106224505Y-101798796D01*
X106200001Y-101800000D01*
X105299999Y-101800000D01*
X105275495Y-101798796D01*
X105251227Y-101795196D01*
X105227428Y-101789235D01*
X105204329Y-101780970D01*
X105182150Y-101770480D01*
X105161107Y-101757868D01*
X105141401Y-101743253D01*
X105123223Y-101726777D01*
X105106747Y-101708599D01*
X105092132Y-101688893D01*
X105079520Y-101667850D01*
X105069030Y-101645671D01*
X105060765Y-101622572D01*
X105054804Y-101598773D01*
X105051204Y-101574505D01*
X105050000Y-101550001D01*
X105050000Y-100899999D01*
X105051204Y-100875495D01*
X105054804Y-100851227D01*
X105060765Y-100827428D01*
X105069030Y-100804329D01*
X105079520Y-100782150D01*
X105092132Y-100761107D01*
X105106747Y-100741401D01*
X105123223Y-100723223D01*
X105141401Y-100706747D01*
X105161107Y-100692132D01*
X105182150Y-100679520D01*
X105204329Y-100669030D01*
X105227428Y-100660765D01*
X105251227Y-100654804D01*
X105275495Y-100651204D01*
X105299999Y-100650000D01*
X106200001Y-100650000D01*
X106224505Y-100651204D01*
X106224505Y-100651204D01*
G37*
D13*
X105750000Y-101225000D03*
D12*
G36*
X106224505Y-102701204D02*
G01*
X106248773Y-102704804D01*
X106272572Y-102710765D01*
X106295671Y-102719030D01*
X106317850Y-102729520D01*
X106338893Y-102742132D01*
X106358599Y-102756747D01*
X106376777Y-102773223D01*
X106393253Y-102791401D01*
X106407868Y-102811107D01*
X106420480Y-102832150D01*
X106430970Y-102854329D01*
X106439235Y-102877428D01*
X106445196Y-102901227D01*
X106448796Y-102925495D01*
X106450000Y-102949999D01*
X106450000Y-103600001D01*
X106448796Y-103624505D01*
X106445196Y-103648773D01*
X106439235Y-103672572D01*
X106430970Y-103695671D01*
X106420480Y-103717850D01*
X106407868Y-103738893D01*
X106393253Y-103758599D01*
X106376777Y-103776777D01*
X106358599Y-103793253D01*
X106338893Y-103807868D01*
X106317850Y-103820480D01*
X106295671Y-103830970D01*
X106272572Y-103839235D01*
X106248773Y-103845196D01*
X106224505Y-103848796D01*
X106200001Y-103850000D01*
X105299999Y-103850000D01*
X105275495Y-103848796D01*
X105251227Y-103845196D01*
X105227428Y-103839235D01*
X105204329Y-103830970D01*
X105182150Y-103820480D01*
X105161107Y-103807868D01*
X105141401Y-103793253D01*
X105123223Y-103776777D01*
X105106747Y-103758599D01*
X105092132Y-103738893D01*
X105079520Y-103717850D01*
X105069030Y-103695671D01*
X105060765Y-103672572D01*
X105054804Y-103648773D01*
X105051204Y-103624505D01*
X105050000Y-103600001D01*
X105050000Y-102949999D01*
X105051204Y-102925495D01*
X105054804Y-102901227D01*
X105060765Y-102877428D01*
X105069030Y-102854329D01*
X105079520Y-102832150D01*
X105092132Y-102811107D01*
X105106747Y-102791401D01*
X105123223Y-102773223D01*
X105141401Y-102756747D01*
X105161107Y-102742132D01*
X105182150Y-102729520D01*
X105204329Y-102719030D01*
X105227428Y-102710765D01*
X105251227Y-102704804D01*
X105275495Y-102701204D01*
X105299999Y-102700000D01*
X106200001Y-102700000D01*
X106224505Y-102701204D01*
X106224505Y-102701204D01*
G37*
D13*
X105750000Y-103275000D03*
D12*
G36*
X106224505Y-107951204D02*
G01*
X106248773Y-107954804D01*
X106272572Y-107960765D01*
X106295671Y-107969030D01*
X106317850Y-107979520D01*
X106338893Y-107992132D01*
X106358599Y-108006747D01*
X106376777Y-108023223D01*
X106393253Y-108041401D01*
X106407868Y-108061107D01*
X106420480Y-108082150D01*
X106430970Y-108104329D01*
X106439235Y-108127428D01*
X106445196Y-108151227D01*
X106448796Y-108175495D01*
X106450000Y-108199999D01*
X106450000Y-108850001D01*
X106448796Y-108874505D01*
X106445196Y-108898773D01*
X106439235Y-108922572D01*
X106430970Y-108945671D01*
X106420480Y-108967850D01*
X106407868Y-108988893D01*
X106393253Y-109008599D01*
X106376777Y-109026777D01*
X106358599Y-109043253D01*
X106338893Y-109057868D01*
X106317850Y-109070480D01*
X106295671Y-109080970D01*
X106272572Y-109089235D01*
X106248773Y-109095196D01*
X106224505Y-109098796D01*
X106200001Y-109100000D01*
X105299999Y-109100000D01*
X105275495Y-109098796D01*
X105251227Y-109095196D01*
X105227428Y-109089235D01*
X105204329Y-109080970D01*
X105182150Y-109070480D01*
X105161107Y-109057868D01*
X105141401Y-109043253D01*
X105123223Y-109026777D01*
X105106747Y-109008599D01*
X105092132Y-108988893D01*
X105079520Y-108967850D01*
X105069030Y-108945671D01*
X105060765Y-108922572D01*
X105054804Y-108898773D01*
X105051204Y-108874505D01*
X105050000Y-108850001D01*
X105050000Y-108199999D01*
X105051204Y-108175495D01*
X105054804Y-108151227D01*
X105060765Y-108127428D01*
X105069030Y-108104329D01*
X105079520Y-108082150D01*
X105092132Y-108061107D01*
X105106747Y-108041401D01*
X105123223Y-108023223D01*
X105141401Y-108006747D01*
X105161107Y-107992132D01*
X105182150Y-107979520D01*
X105204329Y-107969030D01*
X105227428Y-107960765D01*
X105251227Y-107954804D01*
X105275495Y-107951204D01*
X105299999Y-107950000D01*
X106200001Y-107950000D01*
X106224505Y-107951204D01*
X106224505Y-107951204D01*
G37*
D13*
X105750000Y-108525000D03*
D12*
G36*
X106224505Y-105901204D02*
G01*
X106248773Y-105904804D01*
X106272572Y-105910765D01*
X106295671Y-105919030D01*
X106317850Y-105929520D01*
X106338893Y-105942132D01*
X106358599Y-105956747D01*
X106376777Y-105973223D01*
X106393253Y-105991401D01*
X106407868Y-106011107D01*
X106420480Y-106032150D01*
X106430970Y-106054329D01*
X106439235Y-106077428D01*
X106445196Y-106101227D01*
X106448796Y-106125495D01*
X106450000Y-106149999D01*
X106450000Y-106800001D01*
X106448796Y-106824505D01*
X106445196Y-106848773D01*
X106439235Y-106872572D01*
X106430970Y-106895671D01*
X106420480Y-106917850D01*
X106407868Y-106938893D01*
X106393253Y-106958599D01*
X106376777Y-106976777D01*
X106358599Y-106993253D01*
X106338893Y-107007868D01*
X106317850Y-107020480D01*
X106295671Y-107030970D01*
X106272572Y-107039235D01*
X106248773Y-107045196D01*
X106224505Y-107048796D01*
X106200001Y-107050000D01*
X105299999Y-107050000D01*
X105275495Y-107048796D01*
X105251227Y-107045196D01*
X105227428Y-107039235D01*
X105204329Y-107030970D01*
X105182150Y-107020480D01*
X105161107Y-107007868D01*
X105141401Y-106993253D01*
X105123223Y-106976777D01*
X105106747Y-106958599D01*
X105092132Y-106938893D01*
X105079520Y-106917850D01*
X105069030Y-106895671D01*
X105060765Y-106872572D01*
X105054804Y-106848773D01*
X105051204Y-106824505D01*
X105050000Y-106800001D01*
X105050000Y-106149999D01*
X105051204Y-106125495D01*
X105054804Y-106101227D01*
X105060765Y-106077428D01*
X105069030Y-106054329D01*
X105079520Y-106032150D01*
X105092132Y-106011107D01*
X105106747Y-105991401D01*
X105123223Y-105973223D01*
X105141401Y-105956747D01*
X105161107Y-105942132D01*
X105182150Y-105929520D01*
X105204329Y-105919030D01*
X105227428Y-105910765D01*
X105251227Y-105904804D01*
X105275495Y-105901204D01*
X105299999Y-105900000D01*
X106200001Y-105900000D01*
X106224505Y-105901204D01*
X106224505Y-105901204D01*
G37*
D13*
X105750000Y-106475000D03*
D12*
G36*
X94224505Y-112401204D02*
G01*
X94248773Y-112404804D01*
X94272572Y-112410765D01*
X94295671Y-112419030D01*
X94317850Y-112429520D01*
X94338893Y-112442132D01*
X94358599Y-112456747D01*
X94376777Y-112473223D01*
X94393253Y-112491401D01*
X94407868Y-112511107D01*
X94420480Y-112532150D01*
X94430970Y-112554329D01*
X94439235Y-112577428D01*
X94445196Y-112601227D01*
X94448796Y-112625495D01*
X94450000Y-112649999D01*
X94450000Y-113300001D01*
X94448796Y-113324505D01*
X94445196Y-113348773D01*
X94439235Y-113372572D01*
X94430970Y-113395671D01*
X94420480Y-113417850D01*
X94407868Y-113438893D01*
X94393253Y-113458599D01*
X94376777Y-113476777D01*
X94358599Y-113493253D01*
X94338893Y-113507868D01*
X94317850Y-113520480D01*
X94295671Y-113530970D01*
X94272572Y-113539235D01*
X94248773Y-113545196D01*
X94224505Y-113548796D01*
X94200001Y-113550000D01*
X93299999Y-113550000D01*
X93275495Y-113548796D01*
X93251227Y-113545196D01*
X93227428Y-113539235D01*
X93204329Y-113530970D01*
X93182150Y-113520480D01*
X93161107Y-113507868D01*
X93141401Y-113493253D01*
X93123223Y-113476777D01*
X93106747Y-113458599D01*
X93092132Y-113438893D01*
X93079520Y-113417850D01*
X93069030Y-113395671D01*
X93060765Y-113372572D01*
X93054804Y-113348773D01*
X93051204Y-113324505D01*
X93050000Y-113300001D01*
X93050000Y-112649999D01*
X93051204Y-112625495D01*
X93054804Y-112601227D01*
X93060765Y-112577428D01*
X93069030Y-112554329D01*
X93079520Y-112532150D01*
X93092132Y-112511107D01*
X93106747Y-112491401D01*
X93123223Y-112473223D01*
X93141401Y-112456747D01*
X93161107Y-112442132D01*
X93182150Y-112429520D01*
X93204329Y-112419030D01*
X93227428Y-112410765D01*
X93251227Y-112404804D01*
X93275495Y-112401204D01*
X93299999Y-112400000D01*
X94200001Y-112400000D01*
X94224505Y-112401204D01*
X94224505Y-112401204D01*
G37*
D13*
X93750000Y-112975000D03*
D12*
G36*
X94224505Y-114451204D02*
G01*
X94248773Y-114454804D01*
X94272572Y-114460765D01*
X94295671Y-114469030D01*
X94317850Y-114479520D01*
X94338893Y-114492132D01*
X94358599Y-114506747D01*
X94376777Y-114523223D01*
X94393253Y-114541401D01*
X94407868Y-114561107D01*
X94420480Y-114582150D01*
X94430970Y-114604329D01*
X94439235Y-114627428D01*
X94445196Y-114651227D01*
X94448796Y-114675495D01*
X94450000Y-114699999D01*
X94450000Y-115350001D01*
X94448796Y-115374505D01*
X94445196Y-115398773D01*
X94439235Y-115422572D01*
X94430970Y-115445671D01*
X94420480Y-115467850D01*
X94407868Y-115488893D01*
X94393253Y-115508599D01*
X94376777Y-115526777D01*
X94358599Y-115543253D01*
X94338893Y-115557868D01*
X94317850Y-115570480D01*
X94295671Y-115580970D01*
X94272572Y-115589235D01*
X94248773Y-115595196D01*
X94224505Y-115598796D01*
X94200001Y-115600000D01*
X93299999Y-115600000D01*
X93275495Y-115598796D01*
X93251227Y-115595196D01*
X93227428Y-115589235D01*
X93204329Y-115580970D01*
X93182150Y-115570480D01*
X93161107Y-115557868D01*
X93141401Y-115543253D01*
X93123223Y-115526777D01*
X93106747Y-115508599D01*
X93092132Y-115488893D01*
X93079520Y-115467850D01*
X93069030Y-115445671D01*
X93060765Y-115422572D01*
X93054804Y-115398773D01*
X93051204Y-115374505D01*
X93050000Y-115350001D01*
X93050000Y-114699999D01*
X93051204Y-114675495D01*
X93054804Y-114651227D01*
X93060765Y-114627428D01*
X93069030Y-114604329D01*
X93079520Y-114582150D01*
X93092132Y-114561107D01*
X93106747Y-114541401D01*
X93123223Y-114523223D01*
X93141401Y-114506747D01*
X93161107Y-114492132D01*
X93182150Y-114479520D01*
X93204329Y-114469030D01*
X93227428Y-114460765D01*
X93251227Y-114454804D01*
X93275495Y-114451204D01*
X93299999Y-114450000D01*
X94200001Y-114450000D01*
X94224505Y-114451204D01*
X94224505Y-114451204D01*
G37*
D13*
X93750000Y-115025000D03*
D12*
G36*
X94224505Y-118451204D02*
G01*
X94248773Y-118454804D01*
X94272572Y-118460765D01*
X94295671Y-118469030D01*
X94317850Y-118479520D01*
X94338893Y-118492132D01*
X94358599Y-118506747D01*
X94376777Y-118523223D01*
X94393253Y-118541401D01*
X94407868Y-118561107D01*
X94420480Y-118582150D01*
X94430970Y-118604329D01*
X94439235Y-118627428D01*
X94445196Y-118651227D01*
X94448796Y-118675495D01*
X94450000Y-118699999D01*
X94450000Y-119350001D01*
X94448796Y-119374505D01*
X94445196Y-119398773D01*
X94439235Y-119422572D01*
X94430970Y-119445671D01*
X94420480Y-119467850D01*
X94407868Y-119488893D01*
X94393253Y-119508599D01*
X94376777Y-119526777D01*
X94358599Y-119543253D01*
X94338893Y-119557868D01*
X94317850Y-119570480D01*
X94295671Y-119580970D01*
X94272572Y-119589235D01*
X94248773Y-119595196D01*
X94224505Y-119598796D01*
X94200001Y-119600000D01*
X93299999Y-119600000D01*
X93275495Y-119598796D01*
X93251227Y-119595196D01*
X93227428Y-119589235D01*
X93204329Y-119580970D01*
X93182150Y-119570480D01*
X93161107Y-119557868D01*
X93141401Y-119543253D01*
X93123223Y-119526777D01*
X93106747Y-119508599D01*
X93092132Y-119488893D01*
X93079520Y-119467850D01*
X93069030Y-119445671D01*
X93060765Y-119422572D01*
X93054804Y-119398773D01*
X93051204Y-119374505D01*
X93050000Y-119350001D01*
X93050000Y-118699999D01*
X93051204Y-118675495D01*
X93054804Y-118651227D01*
X93060765Y-118627428D01*
X93069030Y-118604329D01*
X93079520Y-118582150D01*
X93092132Y-118561107D01*
X93106747Y-118541401D01*
X93123223Y-118523223D01*
X93141401Y-118506747D01*
X93161107Y-118492132D01*
X93182150Y-118479520D01*
X93204329Y-118469030D01*
X93227428Y-118460765D01*
X93251227Y-118454804D01*
X93275495Y-118451204D01*
X93299999Y-118450000D01*
X94200001Y-118450000D01*
X94224505Y-118451204D01*
X94224505Y-118451204D01*
G37*
D13*
X93750000Y-119025000D03*
D12*
G36*
X94224505Y-116401204D02*
G01*
X94248773Y-116404804D01*
X94272572Y-116410765D01*
X94295671Y-116419030D01*
X94317850Y-116429520D01*
X94338893Y-116442132D01*
X94358599Y-116456747D01*
X94376777Y-116473223D01*
X94393253Y-116491401D01*
X94407868Y-116511107D01*
X94420480Y-116532150D01*
X94430970Y-116554329D01*
X94439235Y-116577428D01*
X94445196Y-116601227D01*
X94448796Y-116625495D01*
X94450000Y-116649999D01*
X94450000Y-117300001D01*
X94448796Y-117324505D01*
X94445196Y-117348773D01*
X94439235Y-117372572D01*
X94430970Y-117395671D01*
X94420480Y-117417850D01*
X94407868Y-117438893D01*
X94393253Y-117458599D01*
X94376777Y-117476777D01*
X94358599Y-117493253D01*
X94338893Y-117507868D01*
X94317850Y-117520480D01*
X94295671Y-117530970D01*
X94272572Y-117539235D01*
X94248773Y-117545196D01*
X94224505Y-117548796D01*
X94200001Y-117550000D01*
X93299999Y-117550000D01*
X93275495Y-117548796D01*
X93251227Y-117545196D01*
X93227428Y-117539235D01*
X93204329Y-117530970D01*
X93182150Y-117520480D01*
X93161107Y-117507868D01*
X93141401Y-117493253D01*
X93123223Y-117476777D01*
X93106747Y-117458599D01*
X93092132Y-117438893D01*
X93079520Y-117417850D01*
X93069030Y-117395671D01*
X93060765Y-117372572D01*
X93054804Y-117348773D01*
X93051204Y-117324505D01*
X93050000Y-117300001D01*
X93050000Y-116649999D01*
X93051204Y-116625495D01*
X93054804Y-116601227D01*
X93060765Y-116577428D01*
X93069030Y-116554329D01*
X93079520Y-116532150D01*
X93092132Y-116511107D01*
X93106747Y-116491401D01*
X93123223Y-116473223D01*
X93141401Y-116456747D01*
X93161107Y-116442132D01*
X93182150Y-116429520D01*
X93204329Y-116419030D01*
X93227428Y-116410765D01*
X93251227Y-116404804D01*
X93275495Y-116401204D01*
X93299999Y-116400000D01*
X94200001Y-116400000D01*
X94224505Y-116401204D01*
X94224505Y-116401204D01*
G37*
D13*
X93750000Y-116975000D03*
D12*
G36*
X74674505Y-93801204D02*
G01*
X74698773Y-93804804D01*
X74722572Y-93810765D01*
X74745671Y-93819030D01*
X74767850Y-93829520D01*
X74788893Y-93842132D01*
X74808599Y-93856747D01*
X74826777Y-93873223D01*
X74843253Y-93891401D01*
X74857868Y-93911107D01*
X74870480Y-93932150D01*
X74880970Y-93954329D01*
X74889235Y-93977428D01*
X74895196Y-94001227D01*
X74898796Y-94025495D01*
X74900000Y-94049999D01*
X74900000Y-94700001D01*
X74898796Y-94724505D01*
X74895196Y-94748773D01*
X74889235Y-94772572D01*
X74880970Y-94795671D01*
X74870480Y-94817850D01*
X74857868Y-94838893D01*
X74843253Y-94858599D01*
X74826777Y-94876777D01*
X74808599Y-94893253D01*
X74788893Y-94907868D01*
X74767850Y-94920480D01*
X74745671Y-94930970D01*
X74722572Y-94939235D01*
X74698773Y-94945196D01*
X74674505Y-94948796D01*
X74650001Y-94950000D01*
X73749999Y-94950000D01*
X73725495Y-94948796D01*
X73701227Y-94945196D01*
X73677428Y-94939235D01*
X73654329Y-94930970D01*
X73632150Y-94920480D01*
X73611107Y-94907868D01*
X73591401Y-94893253D01*
X73573223Y-94876777D01*
X73556747Y-94858599D01*
X73542132Y-94838893D01*
X73529520Y-94817850D01*
X73519030Y-94795671D01*
X73510765Y-94772572D01*
X73504804Y-94748773D01*
X73501204Y-94724505D01*
X73500000Y-94700001D01*
X73500000Y-94049999D01*
X73501204Y-94025495D01*
X73504804Y-94001227D01*
X73510765Y-93977428D01*
X73519030Y-93954329D01*
X73529520Y-93932150D01*
X73542132Y-93911107D01*
X73556747Y-93891401D01*
X73573223Y-93873223D01*
X73591401Y-93856747D01*
X73611107Y-93842132D01*
X73632150Y-93829520D01*
X73654329Y-93819030D01*
X73677428Y-93810765D01*
X73701227Y-93804804D01*
X73725495Y-93801204D01*
X73749999Y-93800000D01*
X74650001Y-93800000D01*
X74674505Y-93801204D01*
X74674505Y-93801204D01*
G37*
D13*
X74200000Y-94375000D03*
D12*
G36*
X74674505Y-95851204D02*
G01*
X74698773Y-95854804D01*
X74722572Y-95860765D01*
X74745671Y-95869030D01*
X74767850Y-95879520D01*
X74788893Y-95892132D01*
X74808599Y-95906747D01*
X74826777Y-95923223D01*
X74843253Y-95941401D01*
X74857868Y-95961107D01*
X74870480Y-95982150D01*
X74880970Y-96004329D01*
X74889235Y-96027428D01*
X74895196Y-96051227D01*
X74898796Y-96075495D01*
X74900000Y-96099999D01*
X74900000Y-96750001D01*
X74898796Y-96774505D01*
X74895196Y-96798773D01*
X74889235Y-96822572D01*
X74880970Y-96845671D01*
X74870480Y-96867850D01*
X74857868Y-96888893D01*
X74843253Y-96908599D01*
X74826777Y-96926777D01*
X74808599Y-96943253D01*
X74788893Y-96957868D01*
X74767850Y-96970480D01*
X74745671Y-96980970D01*
X74722572Y-96989235D01*
X74698773Y-96995196D01*
X74674505Y-96998796D01*
X74650001Y-97000000D01*
X73749999Y-97000000D01*
X73725495Y-96998796D01*
X73701227Y-96995196D01*
X73677428Y-96989235D01*
X73654329Y-96980970D01*
X73632150Y-96970480D01*
X73611107Y-96957868D01*
X73591401Y-96943253D01*
X73573223Y-96926777D01*
X73556747Y-96908599D01*
X73542132Y-96888893D01*
X73529520Y-96867850D01*
X73519030Y-96845671D01*
X73510765Y-96822572D01*
X73504804Y-96798773D01*
X73501204Y-96774505D01*
X73500000Y-96750001D01*
X73500000Y-96099999D01*
X73501204Y-96075495D01*
X73504804Y-96051227D01*
X73510765Y-96027428D01*
X73519030Y-96004329D01*
X73529520Y-95982150D01*
X73542132Y-95961107D01*
X73556747Y-95941401D01*
X73573223Y-95923223D01*
X73591401Y-95906747D01*
X73611107Y-95892132D01*
X73632150Y-95879520D01*
X73654329Y-95869030D01*
X73677428Y-95860765D01*
X73701227Y-95854804D01*
X73725495Y-95851204D01*
X73749999Y-95850000D01*
X74650001Y-95850000D01*
X74674505Y-95851204D01*
X74674505Y-95851204D01*
G37*
D13*
X74200000Y-96425000D03*
D14*
X96000000Y-57150000D03*
X96000000Y-53850000D03*
X96800000Y-65550000D03*
X96800000Y-68850000D03*
X104000000Y-61350000D03*
X104000000Y-64650000D03*
D15*
X91750000Y-61500000D03*
X95250000Y-61500000D03*
D12*
G36*
X76474505Y-95851204D02*
G01*
X76498773Y-95854804D01*
X76522572Y-95860765D01*
X76545671Y-95869030D01*
X76567850Y-95879520D01*
X76588893Y-95892132D01*
X76608599Y-95906747D01*
X76626777Y-95923223D01*
X76643253Y-95941401D01*
X76657868Y-95961107D01*
X76670480Y-95982150D01*
X76680970Y-96004329D01*
X76689235Y-96027428D01*
X76695196Y-96051227D01*
X76698796Y-96075495D01*
X76700000Y-96099999D01*
X76700000Y-96750001D01*
X76698796Y-96774505D01*
X76695196Y-96798773D01*
X76689235Y-96822572D01*
X76680970Y-96845671D01*
X76670480Y-96867850D01*
X76657868Y-96888893D01*
X76643253Y-96908599D01*
X76626777Y-96926777D01*
X76608599Y-96943253D01*
X76588893Y-96957868D01*
X76567850Y-96970480D01*
X76545671Y-96980970D01*
X76522572Y-96989235D01*
X76498773Y-96995196D01*
X76474505Y-96998796D01*
X76450001Y-97000000D01*
X75549999Y-97000000D01*
X75525495Y-96998796D01*
X75501227Y-96995196D01*
X75477428Y-96989235D01*
X75454329Y-96980970D01*
X75432150Y-96970480D01*
X75411107Y-96957868D01*
X75391401Y-96943253D01*
X75373223Y-96926777D01*
X75356747Y-96908599D01*
X75342132Y-96888893D01*
X75329520Y-96867850D01*
X75319030Y-96845671D01*
X75310765Y-96822572D01*
X75304804Y-96798773D01*
X75301204Y-96774505D01*
X75300000Y-96750001D01*
X75300000Y-96099999D01*
X75301204Y-96075495D01*
X75304804Y-96051227D01*
X75310765Y-96027428D01*
X75319030Y-96004329D01*
X75329520Y-95982150D01*
X75342132Y-95961107D01*
X75356747Y-95941401D01*
X75373223Y-95923223D01*
X75391401Y-95906747D01*
X75411107Y-95892132D01*
X75432150Y-95879520D01*
X75454329Y-95869030D01*
X75477428Y-95860765D01*
X75501227Y-95854804D01*
X75525495Y-95851204D01*
X75549999Y-95850000D01*
X76450001Y-95850000D01*
X76474505Y-95851204D01*
X76474505Y-95851204D01*
G37*
D13*
X76000000Y-96425000D03*
D12*
G36*
X76474505Y-93801204D02*
G01*
X76498773Y-93804804D01*
X76522572Y-93810765D01*
X76545671Y-93819030D01*
X76567850Y-93829520D01*
X76588893Y-93842132D01*
X76608599Y-93856747D01*
X76626777Y-93873223D01*
X76643253Y-93891401D01*
X76657868Y-93911107D01*
X76670480Y-93932150D01*
X76680970Y-93954329D01*
X76689235Y-93977428D01*
X76695196Y-94001227D01*
X76698796Y-94025495D01*
X76700000Y-94049999D01*
X76700000Y-94700001D01*
X76698796Y-94724505D01*
X76695196Y-94748773D01*
X76689235Y-94772572D01*
X76680970Y-94795671D01*
X76670480Y-94817850D01*
X76657868Y-94838893D01*
X76643253Y-94858599D01*
X76626777Y-94876777D01*
X76608599Y-94893253D01*
X76588893Y-94907868D01*
X76567850Y-94920480D01*
X76545671Y-94930970D01*
X76522572Y-94939235D01*
X76498773Y-94945196D01*
X76474505Y-94948796D01*
X76450001Y-94950000D01*
X75549999Y-94950000D01*
X75525495Y-94948796D01*
X75501227Y-94945196D01*
X75477428Y-94939235D01*
X75454329Y-94930970D01*
X75432150Y-94920480D01*
X75411107Y-94907868D01*
X75391401Y-94893253D01*
X75373223Y-94876777D01*
X75356747Y-94858599D01*
X75342132Y-94838893D01*
X75329520Y-94817850D01*
X75319030Y-94795671D01*
X75310765Y-94772572D01*
X75304804Y-94748773D01*
X75301204Y-94724505D01*
X75300000Y-94700001D01*
X75300000Y-94049999D01*
X75301204Y-94025495D01*
X75304804Y-94001227D01*
X75310765Y-93977428D01*
X75319030Y-93954329D01*
X75329520Y-93932150D01*
X75342132Y-93911107D01*
X75356747Y-93891401D01*
X75373223Y-93873223D01*
X75391401Y-93856747D01*
X75411107Y-93842132D01*
X75432150Y-93829520D01*
X75454329Y-93819030D01*
X75477428Y-93810765D01*
X75501227Y-93804804D01*
X75525495Y-93801204D01*
X75549999Y-93800000D01*
X76450001Y-93800000D01*
X76474505Y-93801204D01*
X76474505Y-93801204D01*
G37*
D13*
X76000000Y-94375000D03*
D12*
G36*
X95474505Y-82451204D02*
G01*
X95498773Y-82454804D01*
X95522572Y-82460765D01*
X95545671Y-82469030D01*
X95567850Y-82479520D01*
X95588893Y-82492132D01*
X95608599Y-82506747D01*
X95626777Y-82523223D01*
X95643253Y-82541401D01*
X95657868Y-82561107D01*
X95670480Y-82582150D01*
X95680970Y-82604329D01*
X95689235Y-82627428D01*
X95695196Y-82651227D01*
X95698796Y-82675495D01*
X95700000Y-82699999D01*
X95700000Y-83350001D01*
X95698796Y-83374505D01*
X95695196Y-83398773D01*
X95689235Y-83422572D01*
X95680970Y-83445671D01*
X95670480Y-83467850D01*
X95657868Y-83488893D01*
X95643253Y-83508599D01*
X95626777Y-83526777D01*
X95608599Y-83543253D01*
X95588893Y-83557868D01*
X95567850Y-83570480D01*
X95545671Y-83580970D01*
X95522572Y-83589235D01*
X95498773Y-83595196D01*
X95474505Y-83598796D01*
X95450001Y-83600000D01*
X94549999Y-83600000D01*
X94525495Y-83598796D01*
X94501227Y-83595196D01*
X94477428Y-83589235D01*
X94454329Y-83580970D01*
X94432150Y-83570480D01*
X94411107Y-83557868D01*
X94391401Y-83543253D01*
X94373223Y-83526777D01*
X94356747Y-83508599D01*
X94342132Y-83488893D01*
X94329520Y-83467850D01*
X94319030Y-83445671D01*
X94310765Y-83422572D01*
X94304804Y-83398773D01*
X94301204Y-83374505D01*
X94300000Y-83350001D01*
X94300000Y-82699999D01*
X94301204Y-82675495D01*
X94304804Y-82651227D01*
X94310765Y-82627428D01*
X94319030Y-82604329D01*
X94329520Y-82582150D01*
X94342132Y-82561107D01*
X94356747Y-82541401D01*
X94373223Y-82523223D01*
X94391401Y-82506747D01*
X94411107Y-82492132D01*
X94432150Y-82479520D01*
X94454329Y-82469030D01*
X94477428Y-82460765D01*
X94501227Y-82454804D01*
X94525495Y-82451204D01*
X94549999Y-82450000D01*
X95450001Y-82450000D01*
X95474505Y-82451204D01*
X95474505Y-82451204D01*
G37*
D13*
X95000000Y-83025000D03*
D12*
G36*
X95474505Y-80401204D02*
G01*
X95498773Y-80404804D01*
X95522572Y-80410765D01*
X95545671Y-80419030D01*
X95567850Y-80429520D01*
X95588893Y-80442132D01*
X95608599Y-80456747D01*
X95626777Y-80473223D01*
X95643253Y-80491401D01*
X95657868Y-80511107D01*
X95670480Y-80532150D01*
X95680970Y-80554329D01*
X95689235Y-80577428D01*
X95695196Y-80601227D01*
X95698796Y-80625495D01*
X95700000Y-80649999D01*
X95700000Y-81300001D01*
X95698796Y-81324505D01*
X95695196Y-81348773D01*
X95689235Y-81372572D01*
X95680970Y-81395671D01*
X95670480Y-81417850D01*
X95657868Y-81438893D01*
X95643253Y-81458599D01*
X95626777Y-81476777D01*
X95608599Y-81493253D01*
X95588893Y-81507868D01*
X95567850Y-81520480D01*
X95545671Y-81530970D01*
X95522572Y-81539235D01*
X95498773Y-81545196D01*
X95474505Y-81548796D01*
X95450001Y-81550000D01*
X94549999Y-81550000D01*
X94525495Y-81548796D01*
X94501227Y-81545196D01*
X94477428Y-81539235D01*
X94454329Y-81530970D01*
X94432150Y-81520480D01*
X94411107Y-81507868D01*
X94391401Y-81493253D01*
X94373223Y-81476777D01*
X94356747Y-81458599D01*
X94342132Y-81438893D01*
X94329520Y-81417850D01*
X94319030Y-81395671D01*
X94310765Y-81372572D01*
X94304804Y-81348773D01*
X94301204Y-81324505D01*
X94300000Y-81300001D01*
X94300000Y-80649999D01*
X94301204Y-80625495D01*
X94304804Y-80601227D01*
X94310765Y-80577428D01*
X94319030Y-80554329D01*
X94329520Y-80532150D01*
X94342132Y-80511107D01*
X94356747Y-80491401D01*
X94373223Y-80473223D01*
X94391401Y-80456747D01*
X94411107Y-80442132D01*
X94432150Y-80429520D01*
X94454329Y-80419030D01*
X94477428Y-80410765D01*
X94501227Y-80404804D01*
X94525495Y-80401204D01*
X94549999Y-80400000D01*
X95450001Y-80400000D01*
X95474505Y-80401204D01*
X95474505Y-80401204D01*
G37*
D13*
X95000000Y-80975000D03*
D12*
G36*
X92499504Y-63626204D02*
G01*
X92523773Y-63629804D01*
X92547571Y-63635765D01*
X92570671Y-63644030D01*
X92592849Y-63654520D01*
X92613893Y-63667133D01*
X92633598Y-63681747D01*
X92651777Y-63698223D01*
X92668253Y-63716402D01*
X92682867Y-63736107D01*
X92695480Y-63757151D01*
X92705970Y-63779329D01*
X92714235Y-63802429D01*
X92720196Y-63826227D01*
X92723796Y-63850496D01*
X92725000Y-63875000D01*
X92725000Y-65125000D01*
X92723796Y-65149504D01*
X92720196Y-65173773D01*
X92714235Y-65197571D01*
X92705970Y-65220671D01*
X92695480Y-65242849D01*
X92682867Y-65263893D01*
X92668253Y-65283598D01*
X92651777Y-65301777D01*
X92633598Y-65318253D01*
X92613893Y-65332867D01*
X92592849Y-65345480D01*
X92570671Y-65355970D01*
X92547571Y-65364235D01*
X92523773Y-65370196D01*
X92499504Y-65373796D01*
X92475000Y-65375000D01*
X91550000Y-65375000D01*
X91525496Y-65373796D01*
X91501227Y-65370196D01*
X91477429Y-65364235D01*
X91454329Y-65355970D01*
X91432151Y-65345480D01*
X91411107Y-65332867D01*
X91391402Y-65318253D01*
X91373223Y-65301777D01*
X91356747Y-65283598D01*
X91342133Y-65263893D01*
X91329520Y-65242849D01*
X91319030Y-65220671D01*
X91310765Y-65197571D01*
X91304804Y-65173773D01*
X91301204Y-65149504D01*
X91300000Y-65125000D01*
X91300000Y-63875000D01*
X91301204Y-63850496D01*
X91304804Y-63826227D01*
X91310765Y-63802429D01*
X91319030Y-63779329D01*
X91329520Y-63757151D01*
X91342133Y-63736107D01*
X91356747Y-63716402D01*
X91373223Y-63698223D01*
X91391402Y-63681747D01*
X91411107Y-63667133D01*
X91432151Y-63654520D01*
X91454329Y-63644030D01*
X91477429Y-63635765D01*
X91501227Y-63629804D01*
X91525496Y-63626204D01*
X91550000Y-63625000D01*
X92475000Y-63625000D01*
X92499504Y-63626204D01*
X92499504Y-63626204D01*
G37*
D16*
X92012500Y-64500000D03*
D12*
G36*
X95474504Y-63626204D02*
G01*
X95498773Y-63629804D01*
X95522571Y-63635765D01*
X95545671Y-63644030D01*
X95567849Y-63654520D01*
X95588893Y-63667133D01*
X95608598Y-63681747D01*
X95626777Y-63698223D01*
X95643253Y-63716402D01*
X95657867Y-63736107D01*
X95670480Y-63757151D01*
X95680970Y-63779329D01*
X95689235Y-63802429D01*
X95695196Y-63826227D01*
X95698796Y-63850496D01*
X95700000Y-63875000D01*
X95700000Y-65125000D01*
X95698796Y-65149504D01*
X95695196Y-65173773D01*
X95689235Y-65197571D01*
X95680970Y-65220671D01*
X95670480Y-65242849D01*
X95657867Y-65263893D01*
X95643253Y-65283598D01*
X95626777Y-65301777D01*
X95608598Y-65318253D01*
X95588893Y-65332867D01*
X95567849Y-65345480D01*
X95545671Y-65355970D01*
X95522571Y-65364235D01*
X95498773Y-65370196D01*
X95474504Y-65373796D01*
X95450000Y-65375000D01*
X94525000Y-65375000D01*
X94500496Y-65373796D01*
X94476227Y-65370196D01*
X94452429Y-65364235D01*
X94429329Y-65355970D01*
X94407151Y-65345480D01*
X94386107Y-65332867D01*
X94366402Y-65318253D01*
X94348223Y-65301777D01*
X94331747Y-65283598D01*
X94317133Y-65263893D01*
X94304520Y-65242849D01*
X94294030Y-65220671D01*
X94285765Y-65197571D01*
X94279804Y-65173773D01*
X94276204Y-65149504D01*
X94275000Y-65125000D01*
X94275000Y-63875000D01*
X94276204Y-63850496D01*
X94279804Y-63826227D01*
X94285765Y-63802429D01*
X94294030Y-63779329D01*
X94304520Y-63757151D01*
X94317133Y-63736107D01*
X94331747Y-63716402D01*
X94348223Y-63698223D01*
X94366402Y-63681747D01*
X94386107Y-63667133D01*
X94407151Y-63654520D01*
X94429329Y-63644030D01*
X94452429Y-63635765D01*
X94476227Y-63629804D01*
X94500496Y-63626204D01*
X94525000Y-63625000D01*
X95450000Y-63625000D01*
X95474504Y-63626204D01*
X95474504Y-63626204D01*
G37*
D16*
X94987500Y-64500000D03*
D12*
G36*
X94399504Y-105776204D02*
G01*
X94423773Y-105779804D01*
X94447571Y-105785765D01*
X94470671Y-105794030D01*
X94492849Y-105804520D01*
X94513893Y-105817133D01*
X94533598Y-105831747D01*
X94551777Y-105848223D01*
X94568253Y-105866402D01*
X94582867Y-105886107D01*
X94595480Y-105907151D01*
X94605970Y-105929329D01*
X94614235Y-105952429D01*
X94620196Y-105976227D01*
X94623796Y-106000496D01*
X94625000Y-106025000D01*
X94625000Y-106950000D01*
X94623796Y-106974504D01*
X94620196Y-106998773D01*
X94614235Y-107022571D01*
X94605970Y-107045671D01*
X94595480Y-107067849D01*
X94582867Y-107088893D01*
X94568253Y-107108598D01*
X94551777Y-107126777D01*
X94533598Y-107143253D01*
X94513893Y-107157867D01*
X94492849Y-107170480D01*
X94470671Y-107180970D01*
X94447571Y-107189235D01*
X94423773Y-107195196D01*
X94399504Y-107198796D01*
X94375000Y-107200000D01*
X93125000Y-107200000D01*
X93100496Y-107198796D01*
X93076227Y-107195196D01*
X93052429Y-107189235D01*
X93029329Y-107180970D01*
X93007151Y-107170480D01*
X92986107Y-107157867D01*
X92966402Y-107143253D01*
X92948223Y-107126777D01*
X92931747Y-107108598D01*
X92917133Y-107088893D01*
X92904520Y-107067849D01*
X92894030Y-107045671D01*
X92885765Y-107022571D01*
X92879804Y-106998773D01*
X92876204Y-106974504D01*
X92875000Y-106950000D01*
X92875000Y-106025000D01*
X92876204Y-106000496D01*
X92879804Y-105976227D01*
X92885765Y-105952429D01*
X92894030Y-105929329D01*
X92904520Y-105907151D01*
X92917133Y-105886107D01*
X92931747Y-105866402D01*
X92948223Y-105848223D01*
X92966402Y-105831747D01*
X92986107Y-105817133D01*
X93007151Y-105804520D01*
X93029329Y-105794030D01*
X93052429Y-105785765D01*
X93076227Y-105779804D01*
X93100496Y-105776204D01*
X93125000Y-105775000D01*
X94375000Y-105775000D01*
X94399504Y-105776204D01*
X94399504Y-105776204D01*
G37*
D16*
X93750000Y-106487500D03*
D12*
G36*
X94399504Y-102801204D02*
G01*
X94423773Y-102804804D01*
X94447571Y-102810765D01*
X94470671Y-102819030D01*
X94492849Y-102829520D01*
X94513893Y-102842133D01*
X94533598Y-102856747D01*
X94551777Y-102873223D01*
X94568253Y-102891402D01*
X94582867Y-102911107D01*
X94595480Y-102932151D01*
X94605970Y-102954329D01*
X94614235Y-102977429D01*
X94620196Y-103001227D01*
X94623796Y-103025496D01*
X94625000Y-103050000D01*
X94625000Y-103975000D01*
X94623796Y-103999504D01*
X94620196Y-104023773D01*
X94614235Y-104047571D01*
X94605970Y-104070671D01*
X94595480Y-104092849D01*
X94582867Y-104113893D01*
X94568253Y-104133598D01*
X94551777Y-104151777D01*
X94533598Y-104168253D01*
X94513893Y-104182867D01*
X94492849Y-104195480D01*
X94470671Y-104205970D01*
X94447571Y-104214235D01*
X94423773Y-104220196D01*
X94399504Y-104223796D01*
X94375000Y-104225000D01*
X93125000Y-104225000D01*
X93100496Y-104223796D01*
X93076227Y-104220196D01*
X93052429Y-104214235D01*
X93029329Y-104205970D01*
X93007151Y-104195480D01*
X92986107Y-104182867D01*
X92966402Y-104168253D01*
X92948223Y-104151777D01*
X92931747Y-104133598D01*
X92917133Y-104113893D01*
X92904520Y-104092849D01*
X92894030Y-104070671D01*
X92885765Y-104047571D01*
X92879804Y-104023773D01*
X92876204Y-103999504D01*
X92875000Y-103975000D01*
X92875000Y-103050000D01*
X92876204Y-103025496D01*
X92879804Y-103001227D01*
X92885765Y-102977429D01*
X92894030Y-102954329D01*
X92904520Y-102932151D01*
X92917133Y-102911107D01*
X92931747Y-102891402D01*
X92948223Y-102873223D01*
X92966402Y-102856747D01*
X92986107Y-102842133D01*
X93007151Y-102829520D01*
X93029329Y-102819030D01*
X93052429Y-102810765D01*
X93076227Y-102804804D01*
X93100496Y-102801204D01*
X93125000Y-102800000D01*
X94375000Y-102800000D01*
X94399504Y-102801204D01*
X94399504Y-102801204D01*
G37*
D16*
X93750000Y-103512500D03*
D12*
G36*
X106224505Y-110901204D02*
G01*
X106248773Y-110904804D01*
X106272572Y-110910765D01*
X106295671Y-110919030D01*
X106317850Y-110929520D01*
X106338893Y-110942132D01*
X106358599Y-110956747D01*
X106376777Y-110973223D01*
X106393253Y-110991401D01*
X106407868Y-111011107D01*
X106420480Y-111032150D01*
X106430970Y-111054329D01*
X106439235Y-111077428D01*
X106445196Y-111101227D01*
X106448796Y-111125495D01*
X106450000Y-111149999D01*
X106450000Y-111800001D01*
X106448796Y-111824505D01*
X106445196Y-111848773D01*
X106439235Y-111872572D01*
X106430970Y-111895671D01*
X106420480Y-111917850D01*
X106407868Y-111938893D01*
X106393253Y-111958599D01*
X106376777Y-111976777D01*
X106358599Y-111993253D01*
X106338893Y-112007868D01*
X106317850Y-112020480D01*
X106295671Y-112030970D01*
X106272572Y-112039235D01*
X106248773Y-112045196D01*
X106224505Y-112048796D01*
X106200001Y-112050000D01*
X105299999Y-112050000D01*
X105275495Y-112048796D01*
X105251227Y-112045196D01*
X105227428Y-112039235D01*
X105204329Y-112030970D01*
X105182150Y-112020480D01*
X105161107Y-112007868D01*
X105141401Y-111993253D01*
X105123223Y-111976777D01*
X105106747Y-111958599D01*
X105092132Y-111938893D01*
X105079520Y-111917850D01*
X105069030Y-111895671D01*
X105060765Y-111872572D01*
X105054804Y-111848773D01*
X105051204Y-111824505D01*
X105050000Y-111800001D01*
X105050000Y-111149999D01*
X105051204Y-111125495D01*
X105054804Y-111101227D01*
X105060765Y-111077428D01*
X105069030Y-111054329D01*
X105079520Y-111032150D01*
X105092132Y-111011107D01*
X105106747Y-110991401D01*
X105123223Y-110973223D01*
X105141401Y-110956747D01*
X105161107Y-110942132D01*
X105182150Y-110929520D01*
X105204329Y-110919030D01*
X105227428Y-110910765D01*
X105251227Y-110904804D01*
X105275495Y-110901204D01*
X105299999Y-110900000D01*
X106200001Y-110900000D01*
X106224505Y-110901204D01*
X106224505Y-110901204D01*
G37*
D13*
X105750000Y-111475000D03*
D12*
G36*
X106224505Y-112951204D02*
G01*
X106248773Y-112954804D01*
X106272572Y-112960765D01*
X106295671Y-112969030D01*
X106317850Y-112979520D01*
X106338893Y-112992132D01*
X106358599Y-113006747D01*
X106376777Y-113023223D01*
X106393253Y-113041401D01*
X106407868Y-113061107D01*
X106420480Y-113082150D01*
X106430970Y-113104329D01*
X106439235Y-113127428D01*
X106445196Y-113151227D01*
X106448796Y-113175495D01*
X106450000Y-113199999D01*
X106450000Y-113850001D01*
X106448796Y-113874505D01*
X106445196Y-113898773D01*
X106439235Y-113922572D01*
X106430970Y-113945671D01*
X106420480Y-113967850D01*
X106407868Y-113988893D01*
X106393253Y-114008599D01*
X106376777Y-114026777D01*
X106358599Y-114043253D01*
X106338893Y-114057868D01*
X106317850Y-114070480D01*
X106295671Y-114080970D01*
X106272572Y-114089235D01*
X106248773Y-114095196D01*
X106224505Y-114098796D01*
X106200001Y-114100000D01*
X105299999Y-114100000D01*
X105275495Y-114098796D01*
X105251227Y-114095196D01*
X105227428Y-114089235D01*
X105204329Y-114080970D01*
X105182150Y-114070480D01*
X105161107Y-114057868D01*
X105141401Y-114043253D01*
X105123223Y-114026777D01*
X105106747Y-114008599D01*
X105092132Y-113988893D01*
X105079520Y-113967850D01*
X105069030Y-113945671D01*
X105060765Y-113922572D01*
X105054804Y-113898773D01*
X105051204Y-113874505D01*
X105050000Y-113850001D01*
X105050000Y-113199999D01*
X105051204Y-113175495D01*
X105054804Y-113151227D01*
X105060765Y-113127428D01*
X105069030Y-113104329D01*
X105079520Y-113082150D01*
X105092132Y-113061107D01*
X105106747Y-113041401D01*
X105123223Y-113023223D01*
X105141401Y-113006747D01*
X105161107Y-112992132D01*
X105182150Y-112979520D01*
X105204329Y-112969030D01*
X105227428Y-112960765D01*
X105251227Y-112954804D01*
X105275495Y-112951204D01*
X105299999Y-112950000D01*
X106200001Y-112950000D01*
X106224505Y-112951204D01*
X106224505Y-112951204D01*
G37*
D13*
X105750000Y-113525000D03*
D12*
G36*
X106224505Y-117951204D02*
G01*
X106248773Y-117954804D01*
X106272572Y-117960765D01*
X106295671Y-117969030D01*
X106317850Y-117979520D01*
X106338893Y-117992132D01*
X106358599Y-118006747D01*
X106376777Y-118023223D01*
X106393253Y-118041401D01*
X106407868Y-118061107D01*
X106420480Y-118082150D01*
X106430970Y-118104329D01*
X106439235Y-118127428D01*
X106445196Y-118151227D01*
X106448796Y-118175495D01*
X106450000Y-118199999D01*
X106450000Y-118850001D01*
X106448796Y-118874505D01*
X106445196Y-118898773D01*
X106439235Y-118922572D01*
X106430970Y-118945671D01*
X106420480Y-118967850D01*
X106407868Y-118988893D01*
X106393253Y-119008599D01*
X106376777Y-119026777D01*
X106358599Y-119043253D01*
X106338893Y-119057868D01*
X106317850Y-119070480D01*
X106295671Y-119080970D01*
X106272572Y-119089235D01*
X106248773Y-119095196D01*
X106224505Y-119098796D01*
X106200001Y-119100000D01*
X105299999Y-119100000D01*
X105275495Y-119098796D01*
X105251227Y-119095196D01*
X105227428Y-119089235D01*
X105204329Y-119080970D01*
X105182150Y-119070480D01*
X105161107Y-119057868D01*
X105141401Y-119043253D01*
X105123223Y-119026777D01*
X105106747Y-119008599D01*
X105092132Y-118988893D01*
X105079520Y-118967850D01*
X105069030Y-118945671D01*
X105060765Y-118922572D01*
X105054804Y-118898773D01*
X105051204Y-118874505D01*
X105050000Y-118850001D01*
X105050000Y-118199999D01*
X105051204Y-118175495D01*
X105054804Y-118151227D01*
X105060765Y-118127428D01*
X105069030Y-118104329D01*
X105079520Y-118082150D01*
X105092132Y-118061107D01*
X105106747Y-118041401D01*
X105123223Y-118023223D01*
X105141401Y-118006747D01*
X105161107Y-117992132D01*
X105182150Y-117979520D01*
X105204329Y-117969030D01*
X105227428Y-117960765D01*
X105251227Y-117954804D01*
X105275495Y-117951204D01*
X105299999Y-117950000D01*
X106200001Y-117950000D01*
X106224505Y-117951204D01*
X106224505Y-117951204D01*
G37*
D13*
X105750000Y-118525000D03*
D12*
G36*
X106224505Y-115901204D02*
G01*
X106248773Y-115904804D01*
X106272572Y-115910765D01*
X106295671Y-115919030D01*
X106317850Y-115929520D01*
X106338893Y-115942132D01*
X106358599Y-115956747D01*
X106376777Y-115973223D01*
X106393253Y-115991401D01*
X106407868Y-116011107D01*
X106420480Y-116032150D01*
X106430970Y-116054329D01*
X106439235Y-116077428D01*
X106445196Y-116101227D01*
X106448796Y-116125495D01*
X106450000Y-116149999D01*
X106450000Y-116800001D01*
X106448796Y-116824505D01*
X106445196Y-116848773D01*
X106439235Y-116872572D01*
X106430970Y-116895671D01*
X106420480Y-116917850D01*
X106407868Y-116938893D01*
X106393253Y-116958599D01*
X106376777Y-116976777D01*
X106358599Y-116993253D01*
X106338893Y-117007868D01*
X106317850Y-117020480D01*
X106295671Y-117030970D01*
X106272572Y-117039235D01*
X106248773Y-117045196D01*
X106224505Y-117048796D01*
X106200001Y-117050000D01*
X105299999Y-117050000D01*
X105275495Y-117048796D01*
X105251227Y-117045196D01*
X105227428Y-117039235D01*
X105204329Y-117030970D01*
X105182150Y-117020480D01*
X105161107Y-117007868D01*
X105141401Y-116993253D01*
X105123223Y-116976777D01*
X105106747Y-116958599D01*
X105092132Y-116938893D01*
X105079520Y-116917850D01*
X105069030Y-116895671D01*
X105060765Y-116872572D01*
X105054804Y-116848773D01*
X105051204Y-116824505D01*
X105050000Y-116800001D01*
X105050000Y-116149999D01*
X105051204Y-116125495D01*
X105054804Y-116101227D01*
X105060765Y-116077428D01*
X105069030Y-116054329D01*
X105079520Y-116032150D01*
X105092132Y-116011107D01*
X105106747Y-115991401D01*
X105123223Y-115973223D01*
X105141401Y-115956747D01*
X105161107Y-115942132D01*
X105182150Y-115929520D01*
X105204329Y-115919030D01*
X105227428Y-115910765D01*
X105251227Y-115904804D01*
X105275495Y-115901204D01*
X105299999Y-115900000D01*
X106200001Y-115900000D01*
X106224505Y-115901204D01*
X106224505Y-115901204D01*
G37*
D13*
X105750000Y-116475000D03*
D12*
G36*
X134399504Y-67551204D02*
G01*
X134423773Y-67554804D01*
X134447571Y-67560765D01*
X134470671Y-67569030D01*
X134492849Y-67579520D01*
X134513893Y-67592133D01*
X134533598Y-67606747D01*
X134551777Y-67623223D01*
X134568253Y-67641402D01*
X134582867Y-67661107D01*
X134595480Y-67682151D01*
X134605970Y-67704329D01*
X134614235Y-67727429D01*
X134620196Y-67751227D01*
X134623796Y-67775496D01*
X134625000Y-67800000D01*
X134625000Y-68725000D01*
X134623796Y-68749504D01*
X134620196Y-68773773D01*
X134614235Y-68797571D01*
X134605970Y-68820671D01*
X134595480Y-68842849D01*
X134582867Y-68863893D01*
X134568253Y-68883598D01*
X134551777Y-68901777D01*
X134533598Y-68918253D01*
X134513893Y-68932867D01*
X134492849Y-68945480D01*
X134470671Y-68955970D01*
X134447571Y-68964235D01*
X134423773Y-68970196D01*
X134399504Y-68973796D01*
X134375000Y-68975000D01*
X133125000Y-68975000D01*
X133100496Y-68973796D01*
X133076227Y-68970196D01*
X133052429Y-68964235D01*
X133029329Y-68955970D01*
X133007151Y-68945480D01*
X132986107Y-68932867D01*
X132966402Y-68918253D01*
X132948223Y-68901777D01*
X132931747Y-68883598D01*
X132917133Y-68863893D01*
X132904520Y-68842849D01*
X132894030Y-68820671D01*
X132885765Y-68797571D01*
X132879804Y-68773773D01*
X132876204Y-68749504D01*
X132875000Y-68725000D01*
X132875000Y-67800000D01*
X132876204Y-67775496D01*
X132879804Y-67751227D01*
X132885765Y-67727429D01*
X132894030Y-67704329D01*
X132904520Y-67682151D01*
X132917133Y-67661107D01*
X132931747Y-67641402D01*
X132948223Y-67623223D01*
X132966402Y-67606747D01*
X132986107Y-67592133D01*
X133007151Y-67579520D01*
X133029329Y-67569030D01*
X133052429Y-67560765D01*
X133076227Y-67554804D01*
X133100496Y-67551204D01*
X133125000Y-67550000D01*
X134375000Y-67550000D01*
X134399504Y-67551204D01*
X134399504Y-67551204D01*
G37*
D16*
X133750000Y-68262500D03*
D12*
G36*
X134399504Y-70526204D02*
G01*
X134423773Y-70529804D01*
X134447571Y-70535765D01*
X134470671Y-70544030D01*
X134492849Y-70554520D01*
X134513893Y-70567133D01*
X134533598Y-70581747D01*
X134551777Y-70598223D01*
X134568253Y-70616402D01*
X134582867Y-70636107D01*
X134595480Y-70657151D01*
X134605970Y-70679329D01*
X134614235Y-70702429D01*
X134620196Y-70726227D01*
X134623796Y-70750496D01*
X134625000Y-70775000D01*
X134625000Y-71700000D01*
X134623796Y-71724504D01*
X134620196Y-71748773D01*
X134614235Y-71772571D01*
X134605970Y-71795671D01*
X134595480Y-71817849D01*
X134582867Y-71838893D01*
X134568253Y-71858598D01*
X134551777Y-71876777D01*
X134533598Y-71893253D01*
X134513893Y-71907867D01*
X134492849Y-71920480D01*
X134470671Y-71930970D01*
X134447571Y-71939235D01*
X134423773Y-71945196D01*
X134399504Y-71948796D01*
X134375000Y-71950000D01*
X133125000Y-71950000D01*
X133100496Y-71948796D01*
X133076227Y-71945196D01*
X133052429Y-71939235D01*
X133029329Y-71930970D01*
X133007151Y-71920480D01*
X132986107Y-71907867D01*
X132966402Y-71893253D01*
X132948223Y-71876777D01*
X132931747Y-71858598D01*
X132917133Y-71838893D01*
X132904520Y-71817849D01*
X132894030Y-71795671D01*
X132885765Y-71772571D01*
X132879804Y-71748773D01*
X132876204Y-71724504D01*
X132875000Y-71700000D01*
X132875000Y-70775000D01*
X132876204Y-70750496D01*
X132879804Y-70726227D01*
X132885765Y-70702429D01*
X132894030Y-70679329D01*
X132904520Y-70657151D01*
X132917133Y-70636107D01*
X132931747Y-70616402D01*
X132948223Y-70598223D01*
X132966402Y-70581747D01*
X132986107Y-70567133D01*
X133007151Y-70554520D01*
X133029329Y-70544030D01*
X133052429Y-70535765D01*
X133076227Y-70529804D01*
X133100496Y-70526204D01*
X133125000Y-70525000D01*
X134375000Y-70525000D01*
X134399504Y-70526204D01*
X134399504Y-70526204D01*
G37*
D16*
X133750000Y-71237500D03*
D12*
G36*
X134399504Y-60551204D02*
G01*
X134423773Y-60554804D01*
X134447571Y-60560765D01*
X134470671Y-60569030D01*
X134492849Y-60579520D01*
X134513893Y-60592133D01*
X134533598Y-60606747D01*
X134551777Y-60623223D01*
X134568253Y-60641402D01*
X134582867Y-60661107D01*
X134595480Y-60682151D01*
X134605970Y-60704329D01*
X134614235Y-60727429D01*
X134620196Y-60751227D01*
X134623796Y-60775496D01*
X134625000Y-60800000D01*
X134625000Y-61725000D01*
X134623796Y-61749504D01*
X134620196Y-61773773D01*
X134614235Y-61797571D01*
X134605970Y-61820671D01*
X134595480Y-61842849D01*
X134582867Y-61863893D01*
X134568253Y-61883598D01*
X134551777Y-61901777D01*
X134533598Y-61918253D01*
X134513893Y-61932867D01*
X134492849Y-61945480D01*
X134470671Y-61955970D01*
X134447571Y-61964235D01*
X134423773Y-61970196D01*
X134399504Y-61973796D01*
X134375000Y-61975000D01*
X133125000Y-61975000D01*
X133100496Y-61973796D01*
X133076227Y-61970196D01*
X133052429Y-61964235D01*
X133029329Y-61955970D01*
X133007151Y-61945480D01*
X132986107Y-61932867D01*
X132966402Y-61918253D01*
X132948223Y-61901777D01*
X132931747Y-61883598D01*
X132917133Y-61863893D01*
X132904520Y-61842849D01*
X132894030Y-61820671D01*
X132885765Y-61797571D01*
X132879804Y-61773773D01*
X132876204Y-61749504D01*
X132875000Y-61725000D01*
X132875000Y-60800000D01*
X132876204Y-60775496D01*
X132879804Y-60751227D01*
X132885765Y-60727429D01*
X132894030Y-60704329D01*
X132904520Y-60682151D01*
X132917133Y-60661107D01*
X132931747Y-60641402D01*
X132948223Y-60623223D01*
X132966402Y-60606747D01*
X132986107Y-60592133D01*
X133007151Y-60579520D01*
X133029329Y-60569030D01*
X133052429Y-60560765D01*
X133076227Y-60554804D01*
X133100496Y-60551204D01*
X133125000Y-60550000D01*
X134375000Y-60550000D01*
X134399504Y-60551204D01*
X134399504Y-60551204D01*
G37*
D16*
X133750000Y-61262500D03*
D12*
G36*
X134399504Y-63526204D02*
G01*
X134423773Y-63529804D01*
X134447571Y-63535765D01*
X134470671Y-63544030D01*
X134492849Y-63554520D01*
X134513893Y-63567133D01*
X134533598Y-63581747D01*
X134551777Y-63598223D01*
X134568253Y-63616402D01*
X134582867Y-63636107D01*
X134595480Y-63657151D01*
X134605970Y-63679329D01*
X134614235Y-63702429D01*
X134620196Y-63726227D01*
X134623796Y-63750496D01*
X134625000Y-63775000D01*
X134625000Y-64700000D01*
X134623796Y-64724504D01*
X134620196Y-64748773D01*
X134614235Y-64772571D01*
X134605970Y-64795671D01*
X134595480Y-64817849D01*
X134582867Y-64838893D01*
X134568253Y-64858598D01*
X134551777Y-64876777D01*
X134533598Y-64893253D01*
X134513893Y-64907867D01*
X134492849Y-64920480D01*
X134470671Y-64930970D01*
X134447571Y-64939235D01*
X134423773Y-64945196D01*
X134399504Y-64948796D01*
X134375000Y-64950000D01*
X133125000Y-64950000D01*
X133100496Y-64948796D01*
X133076227Y-64945196D01*
X133052429Y-64939235D01*
X133029329Y-64930970D01*
X133007151Y-64920480D01*
X132986107Y-64907867D01*
X132966402Y-64893253D01*
X132948223Y-64876777D01*
X132931747Y-64858598D01*
X132917133Y-64838893D01*
X132904520Y-64817849D01*
X132894030Y-64795671D01*
X132885765Y-64772571D01*
X132879804Y-64748773D01*
X132876204Y-64724504D01*
X132875000Y-64700000D01*
X132875000Y-63775000D01*
X132876204Y-63750496D01*
X132879804Y-63726227D01*
X132885765Y-63702429D01*
X132894030Y-63679329D01*
X132904520Y-63657151D01*
X132917133Y-63636107D01*
X132931747Y-63616402D01*
X132948223Y-63598223D01*
X132966402Y-63581747D01*
X132986107Y-63567133D01*
X133007151Y-63554520D01*
X133029329Y-63544030D01*
X133052429Y-63535765D01*
X133076227Y-63529804D01*
X133100496Y-63526204D01*
X133125000Y-63525000D01*
X134375000Y-63525000D01*
X134399504Y-63526204D01*
X134399504Y-63526204D01*
G37*
D16*
X133750000Y-64237500D03*
D12*
G36*
X127399504Y-63788704D02*
G01*
X127423773Y-63792304D01*
X127447571Y-63798265D01*
X127470671Y-63806530D01*
X127492849Y-63817020D01*
X127513893Y-63829633D01*
X127533598Y-63844247D01*
X127551777Y-63860723D01*
X127568253Y-63878902D01*
X127582867Y-63898607D01*
X127595480Y-63919651D01*
X127605970Y-63941829D01*
X127614235Y-63964929D01*
X127620196Y-63988727D01*
X127623796Y-64012996D01*
X127625000Y-64037500D01*
X127625000Y-64962500D01*
X127623796Y-64987004D01*
X127620196Y-65011273D01*
X127614235Y-65035071D01*
X127605970Y-65058171D01*
X127595480Y-65080349D01*
X127582867Y-65101393D01*
X127568253Y-65121098D01*
X127551777Y-65139277D01*
X127533598Y-65155753D01*
X127513893Y-65170367D01*
X127492849Y-65182980D01*
X127470671Y-65193470D01*
X127447571Y-65201735D01*
X127423773Y-65207696D01*
X127399504Y-65211296D01*
X127375000Y-65212500D01*
X126125000Y-65212500D01*
X126100496Y-65211296D01*
X126076227Y-65207696D01*
X126052429Y-65201735D01*
X126029329Y-65193470D01*
X126007151Y-65182980D01*
X125986107Y-65170367D01*
X125966402Y-65155753D01*
X125948223Y-65139277D01*
X125931747Y-65121098D01*
X125917133Y-65101393D01*
X125904520Y-65080349D01*
X125894030Y-65058171D01*
X125885765Y-65035071D01*
X125879804Y-65011273D01*
X125876204Y-64987004D01*
X125875000Y-64962500D01*
X125875000Y-64037500D01*
X125876204Y-64012996D01*
X125879804Y-63988727D01*
X125885765Y-63964929D01*
X125894030Y-63941829D01*
X125904520Y-63919651D01*
X125917133Y-63898607D01*
X125931747Y-63878902D01*
X125948223Y-63860723D01*
X125966402Y-63844247D01*
X125986107Y-63829633D01*
X126007151Y-63817020D01*
X126029329Y-63806530D01*
X126052429Y-63798265D01*
X126076227Y-63792304D01*
X126100496Y-63788704D01*
X126125000Y-63787500D01*
X127375000Y-63787500D01*
X127399504Y-63788704D01*
X127399504Y-63788704D01*
G37*
D16*
X126750000Y-64500000D03*
D12*
G36*
X127399504Y-60813704D02*
G01*
X127423773Y-60817304D01*
X127447571Y-60823265D01*
X127470671Y-60831530D01*
X127492849Y-60842020D01*
X127513893Y-60854633D01*
X127533598Y-60869247D01*
X127551777Y-60885723D01*
X127568253Y-60903902D01*
X127582867Y-60923607D01*
X127595480Y-60944651D01*
X127605970Y-60966829D01*
X127614235Y-60989929D01*
X127620196Y-61013727D01*
X127623796Y-61037996D01*
X127625000Y-61062500D01*
X127625000Y-61987500D01*
X127623796Y-62012004D01*
X127620196Y-62036273D01*
X127614235Y-62060071D01*
X127605970Y-62083171D01*
X127595480Y-62105349D01*
X127582867Y-62126393D01*
X127568253Y-62146098D01*
X127551777Y-62164277D01*
X127533598Y-62180753D01*
X127513893Y-62195367D01*
X127492849Y-62207980D01*
X127470671Y-62218470D01*
X127447571Y-62226735D01*
X127423773Y-62232696D01*
X127399504Y-62236296D01*
X127375000Y-62237500D01*
X126125000Y-62237500D01*
X126100496Y-62236296D01*
X126076227Y-62232696D01*
X126052429Y-62226735D01*
X126029329Y-62218470D01*
X126007151Y-62207980D01*
X125986107Y-62195367D01*
X125966402Y-62180753D01*
X125948223Y-62164277D01*
X125931747Y-62146098D01*
X125917133Y-62126393D01*
X125904520Y-62105349D01*
X125894030Y-62083171D01*
X125885765Y-62060071D01*
X125879804Y-62036273D01*
X125876204Y-62012004D01*
X125875000Y-61987500D01*
X125875000Y-61062500D01*
X125876204Y-61037996D01*
X125879804Y-61013727D01*
X125885765Y-60989929D01*
X125894030Y-60966829D01*
X125904520Y-60944651D01*
X125917133Y-60923607D01*
X125931747Y-60903902D01*
X125948223Y-60885723D01*
X125966402Y-60869247D01*
X125986107Y-60854633D01*
X126007151Y-60842020D01*
X126029329Y-60831530D01*
X126052429Y-60823265D01*
X126076227Y-60817304D01*
X126100496Y-60813704D01*
X126125000Y-60812500D01*
X127375000Y-60812500D01*
X127399504Y-60813704D01*
X127399504Y-60813704D01*
G37*
D16*
X126750000Y-61525000D03*
D17*
X135500000Y-118250000D03*
X132500000Y-119200000D03*
X132500000Y-117300000D03*
X138000000Y-117300000D03*
X138000000Y-119200000D03*
X141000000Y-118250000D03*
X146250000Y-118500000D03*
X143250000Y-119450000D03*
X143250000Y-117550000D03*
D12*
G36*
X124374505Y-119551204D02*
G01*
X124398773Y-119554804D01*
X124422572Y-119560765D01*
X124445671Y-119569030D01*
X124467850Y-119579520D01*
X124488893Y-119592132D01*
X124508599Y-119606747D01*
X124526777Y-119623223D01*
X124543253Y-119641401D01*
X124557868Y-119661107D01*
X124570480Y-119682150D01*
X124580970Y-119704329D01*
X124589235Y-119727428D01*
X124595196Y-119751227D01*
X124598796Y-119775495D01*
X124600000Y-119799999D01*
X124600000Y-120700001D01*
X124598796Y-120724505D01*
X124595196Y-120748773D01*
X124589235Y-120772572D01*
X124580970Y-120795671D01*
X124570480Y-120817850D01*
X124557868Y-120838893D01*
X124543253Y-120858599D01*
X124526777Y-120876777D01*
X124508599Y-120893253D01*
X124488893Y-120907868D01*
X124467850Y-120920480D01*
X124445671Y-120930970D01*
X124422572Y-120939235D01*
X124398773Y-120945196D01*
X124374505Y-120948796D01*
X124350001Y-120950000D01*
X123699999Y-120950000D01*
X123675495Y-120948796D01*
X123651227Y-120945196D01*
X123627428Y-120939235D01*
X123604329Y-120930970D01*
X123582150Y-120920480D01*
X123561107Y-120907868D01*
X123541401Y-120893253D01*
X123523223Y-120876777D01*
X123506747Y-120858599D01*
X123492132Y-120838893D01*
X123479520Y-120817850D01*
X123469030Y-120795671D01*
X123460765Y-120772572D01*
X123454804Y-120748773D01*
X123451204Y-120724505D01*
X123450000Y-120700001D01*
X123450000Y-119799999D01*
X123451204Y-119775495D01*
X123454804Y-119751227D01*
X123460765Y-119727428D01*
X123469030Y-119704329D01*
X123479520Y-119682150D01*
X123492132Y-119661107D01*
X123506747Y-119641401D01*
X123523223Y-119623223D01*
X123541401Y-119606747D01*
X123561107Y-119592132D01*
X123582150Y-119579520D01*
X123604329Y-119569030D01*
X123627428Y-119560765D01*
X123651227Y-119554804D01*
X123675495Y-119551204D01*
X123699999Y-119550000D01*
X124350001Y-119550000D01*
X124374505Y-119551204D01*
X124374505Y-119551204D01*
G37*
D13*
X124025000Y-120250000D03*
D12*
G36*
X122324505Y-119551204D02*
G01*
X122348773Y-119554804D01*
X122372572Y-119560765D01*
X122395671Y-119569030D01*
X122417850Y-119579520D01*
X122438893Y-119592132D01*
X122458599Y-119606747D01*
X122476777Y-119623223D01*
X122493253Y-119641401D01*
X122507868Y-119661107D01*
X122520480Y-119682150D01*
X122530970Y-119704329D01*
X122539235Y-119727428D01*
X122545196Y-119751227D01*
X122548796Y-119775495D01*
X122550000Y-119799999D01*
X122550000Y-120700001D01*
X122548796Y-120724505D01*
X122545196Y-120748773D01*
X122539235Y-120772572D01*
X122530970Y-120795671D01*
X122520480Y-120817850D01*
X122507868Y-120838893D01*
X122493253Y-120858599D01*
X122476777Y-120876777D01*
X122458599Y-120893253D01*
X122438893Y-120907868D01*
X122417850Y-120920480D01*
X122395671Y-120930970D01*
X122372572Y-120939235D01*
X122348773Y-120945196D01*
X122324505Y-120948796D01*
X122300001Y-120950000D01*
X121649999Y-120950000D01*
X121625495Y-120948796D01*
X121601227Y-120945196D01*
X121577428Y-120939235D01*
X121554329Y-120930970D01*
X121532150Y-120920480D01*
X121511107Y-120907868D01*
X121491401Y-120893253D01*
X121473223Y-120876777D01*
X121456747Y-120858599D01*
X121442132Y-120838893D01*
X121429520Y-120817850D01*
X121419030Y-120795671D01*
X121410765Y-120772572D01*
X121404804Y-120748773D01*
X121401204Y-120724505D01*
X121400000Y-120700001D01*
X121400000Y-119799999D01*
X121401204Y-119775495D01*
X121404804Y-119751227D01*
X121410765Y-119727428D01*
X121419030Y-119704329D01*
X121429520Y-119682150D01*
X121442132Y-119661107D01*
X121456747Y-119641401D01*
X121473223Y-119623223D01*
X121491401Y-119606747D01*
X121511107Y-119592132D01*
X121532150Y-119579520D01*
X121554329Y-119569030D01*
X121577428Y-119560765D01*
X121601227Y-119554804D01*
X121625495Y-119551204D01*
X121649999Y-119550000D01*
X122300001Y-119550000D01*
X122324505Y-119551204D01*
X122324505Y-119551204D01*
G37*
D13*
X121975000Y-120250000D03*
D12*
G36*
X135724505Y-115201204D02*
G01*
X135748773Y-115204804D01*
X135772572Y-115210765D01*
X135795671Y-115219030D01*
X135817850Y-115229520D01*
X135838893Y-115242132D01*
X135858599Y-115256747D01*
X135876777Y-115273223D01*
X135893253Y-115291401D01*
X135907868Y-115311107D01*
X135920480Y-115332150D01*
X135930970Y-115354329D01*
X135939235Y-115377428D01*
X135945196Y-115401227D01*
X135948796Y-115425495D01*
X135950000Y-115449999D01*
X135950000Y-116100001D01*
X135948796Y-116124505D01*
X135945196Y-116148773D01*
X135939235Y-116172572D01*
X135930970Y-116195671D01*
X135920480Y-116217850D01*
X135907868Y-116238893D01*
X135893253Y-116258599D01*
X135876777Y-116276777D01*
X135858599Y-116293253D01*
X135838893Y-116307868D01*
X135817850Y-116320480D01*
X135795671Y-116330970D01*
X135772572Y-116339235D01*
X135748773Y-116345196D01*
X135724505Y-116348796D01*
X135700001Y-116350000D01*
X134799999Y-116350000D01*
X134775495Y-116348796D01*
X134751227Y-116345196D01*
X134727428Y-116339235D01*
X134704329Y-116330970D01*
X134682150Y-116320480D01*
X134661107Y-116307868D01*
X134641401Y-116293253D01*
X134623223Y-116276777D01*
X134606747Y-116258599D01*
X134592132Y-116238893D01*
X134579520Y-116217850D01*
X134569030Y-116195671D01*
X134560765Y-116172572D01*
X134554804Y-116148773D01*
X134551204Y-116124505D01*
X134550000Y-116100001D01*
X134550000Y-115449999D01*
X134551204Y-115425495D01*
X134554804Y-115401227D01*
X134560765Y-115377428D01*
X134569030Y-115354329D01*
X134579520Y-115332150D01*
X134592132Y-115311107D01*
X134606747Y-115291401D01*
X134623223Y-115273223D01*
X134641401Y-115256747D01*
X134661107Y-115242132D01*
X134682150Y-115229520D01*
X134704329Y-115219030D01*
X134727428Y-115210765D01*
X134751227Y-115204804D01*
X134775495Y-115201204D01*
X134799999Y-115200000D01*
X135700001Y-115200000D01*
X135724505Y-115201204D01*
X135724505Y-115201204D01*
G37*
D13*
X135250000Y-115775000D03*
D12*
G36*
X135724505Y-113151204D02*
G01*
X135748773Y-113154804D01*
X135772572Y-113160765D01*
X135795671Y-113169030D01*
X135817850Y-113179520D01*
X135838893Y-113192132D01*
X135858599Y-113206747D01*
X135876777Y-113223223D01*
X135893253Y-113241401D01*
X135907868Y-113261107D01*
X135920480Y-113282150D01*
X135930970Y-113304329D01*
X135939235Y-113327428D01*
X135945196Y-113351227D01*
X135948796Y-113375495D01*
X135950000Y-113399999D01*
X135950000Y-114050001D01*
X135948796Y-114074505D01*
X135945196Y-114098773D01*
X135939235Y-114122572D01*
X135930970Y-114145671D01*
X135920480Y-114167850D01*
X135907868Y-114188893D01*
X135893253Y-114208599D01*
X135876777Y-114226777D01*
X135858599Y-114243253D01*
X135838893Y-114257868D01*
X135817850Y-114270480D01*
X135795671Y-114280970D01*
X135772572Y-114289235D01*
X135748773Y-114295196D01*
X135724505Y-114298796D01*
X135700001Y-114300000D01*
X134799999Y-114300000D01*
X134775495Y-114298796D01*
X134751227Y-114295196D01*
X134727428Y-114289235D01*
X134704329Y-114280970D01*
X134682150Y-114270480D01*
X134661107Y-114257868D01*
X134641401Y-114243253D01*
X134623223Y-114226777D01*
X134606747Y-114208599D01*
X134592132Y-114188893D01*
X134579520Y-114167850D01*
X134569030Y-114145671D01*
X134560765Y-114122572D01*
X134554804Y-114098773D01*
X134551204Y-114074505D01*
X134550000Y-114050001D01*
X134550000Y-113399999D01*
X134551204Y-113375495D01*
X134554804Y-113351227D01*
X134560765Y-113327428D01*
X134569030Y-113304329D01*
X134579520Y-113282150D01*
X134592132Y-113261107D01*
X134606747Y-113241401D01*
X134623223Y-113223223D01*
X134641401Y-113206747D01*
X134661107Y-113192132D01*
X134682150Y-113179520D01*
X134704329Y-113169030D01*
X134727428Y-113160765D01*
X134751227Y-113154804D01*
X134775495Y-113151204D01*
X134799999Y-113150000D01*
X135700001Y-113150000D01*
X135724505Y-113151204D01*
X135724505Y-113151204D01*
G37*
D13*
X135250000Y-113725000D03*
D12*
G36*
X143224505Y-113151204D02*
G01*
X143248773Y-113154804D01*
X143272572Y-113160765D01*
X143295671Y-113169030D01*
X143317850Y-113179520D01*
X143338893Y-113192132D01*
X143358599Y-113206747D01*
X143376777Y-113223223D01*
X143393253Y-113241401D01*
X143407868Y-113261107D01*
X143420480Y-113282150D01*
X143430970Y-113304329D01*
X143439235Y-113327428D01*
X143445196Y-113351227D01*
X143448796Y-113375495D01*
X143450000Y-113399999D01*
X143450000Y-114050001D01*
X143448796Y-114074505D01*
X143445196Y-114098773D01*
X143439235Y-114122572D01*
X143430970Y-114145671D01*
X143420480Y-114167850D01*
X143407868Y-114188893D01*
X143393253Y-114208599D01*
X143376777Y-114226777D01*
X143358599Y-114243253D01*
X143338893Y-114257868D01*
X143317850Y-114270480D01*
X143295671Y-114280970D01*
X143272572Y-114289235D01*
X143248773Y-114295196D01*
X143224505Y-114298796D01*
X143200001Y-114300000D01*
X142299999Y-114300000D01*
X142275495Y-114298796D01*
X142251227Y-114295196D01*
X142227428Y-114289235D01*
X142204329Y-114280970D01*
X142182150Y-114270480D01*
X142161107Y-114257868D01*
X142141401Y-114243253D01*
X142123223Y-114226777D01*
X142106747Y-114208599D01*
X142092132Y-114188893D01*
X142079520Y-114167850D01*
X142069030Y-114145671D01*
X142060765Y-114122572D01*
X142054804Y-114098773D01*
X142051204Y-114074505D01*
X142050000Y-114050001D01*
X142050000Y-113399999D01*
X142051204Y-113375495D01*
X142054804Y-113351227D01*
X142060765Y-113327428D01*
X142069030Y-113304329D01*
X142079520Y-113282150D01*
X142092132Y-113261107D01*
X142106747Y-113241401D01*
X142123223Y-113223223D01*
X142141401Y-113206747D01*
X142161107Y-113192132D01*
X142182150Y-113179520D01*
X142204329Y-113169030D01*
X142227428Y-113160765D01*
X142251227Y-113154804D01*
X142275495Y-113151204D01*
X142299999Y-113150000D01*
X143200001Y-113150000D01*
X143224505Y-113151204D01*
X143224505Y-113151204D01*
G37*
D13*
X142750000Y-113725000D03*
D12*
G36*
X143224505Y-115201204D02*
G01*
X143248773Y-115204804D01*
X143272572Y-115210765D01*
X143295671Y-115219030D01*
X143317850Y-115229520D01*
X143338893Y-115242132D01*
X143358599Y-115256747D01*
X143376777Y-115273223D01*
X143393253Y-115291401D01*
X143407868Y-115311107D01*
X143420480Y-115332150D01*
X143430970Y-115354329D01*
X143439235Y-115377428D01*
X143445196Y-115401227D01*
X143448796Y-115425495D01*
X143450000Y-115449999D01*
X143450000Y-116100001D01*
X143448796Y-116124505D01*
X143445196Y-116148773D01*
X143439235Y-116172572D01*
X143430970Y-116195671D01*
X143420480Y-116217850D01*
X143407868Y-116238893D01*
X143393253Y-116258599D01*
X143376777Y-116276777D01*
X143358599Y-116293253D01*
X143338893Y-116307868D01*
X143317850Y-116320480D01*
X143295671Y-116330970D01*
X143272572Y-116339235D01*
X143248773Y-116345196D01*
X143224505Y-116348796D01*
X143200001Y-116350000D01*
X142299999Y-116350000D01*
X142275495Y-116348796D01*
X142251227Y-116345196D01*
X142227428Y-116339235D01*
X142204329Y-116330970D01*
X142182150Y-116320480D01*
X142161107Y-116307868D01*
X142141401Y-116293253D01*
X142123223Y-116276777D01*
X142106747Y-116258599D01*
X142092132Y-116238893D01*
X142079520Y-116217850D01*
X142069030Y-116195671D01*
X142060765Y-116172572D01*
X142054804Y-116148773D01*
X142051204Y-116124505D01*
X142050000Y-116100001D01*
X142050000Y-115449999D01*
X142051204Y-115425495D01*
X142054804Y-115401227D01*
X142060765Y-115377428D01*
X142069030Y-115354329D01*
X142079520Y-115332150D01*
X142092132Y-115311107D01*
X142106747Y-115291401D01*
X142123223Y-115273223D01*
X142141401Y-115256747D01*
X142161107Y-115242132D01*
X142182150Y-115229520D01*
X142204329Y-115219030D01*
X142227428Y-115210765D01*
X142251227Y-115204804D01*
X142275495Y-115201204D01*
X142299999Y-115200000D01*
X143200001Y-115200000D01*
X143224505Y-115201204D01*
X143224505Y-115201204D01*
G37*
D13*
X142750000Y-115775000D03*
D12*
G36*
X139974505Y-113151204D02*
G01*
X139998773Y-113154804D01*
X140022572Y-113160765D01*
X140045671Y-113169030D01*
X140067850Y-113179520D01*
X140088893Y-113192132D01*
X140108599Y-113206747D01*
X140126777Y-113223223D01*
X140143253Y-113241401D01*
X140157868Y-113261107D01*
X140170480Y-113282150D01*
X140180970Y-113304329D01*
X140189235Y-113327428D01*
X140195196Y-113351227D01*
X140198796Y-113375495D01*
X140200000Y-113399999D01*
X140200000Y-114050001D01*
X140198796Y-114074505D01*
X140195196Y-114098773D01*
X140189235Y-114122572D01*
X140180970Y-114145671D01*
X140170480Y-114167850D01*
X140157868Y-114188893D01*
X140143253Y-114208599D01*
X140126777Y-114226777D01*
X140108599Y-114243253D01*
X140088893Y-114257868D01*
X140067850Y-114270480D01*
X140045671Y-114280970D01*
X140022572Y-114289235D01*
X139998773Y-114295196D01*
X139974505Y-114298796D01*
X139950001Y-114300000D01*
X139049999Y-114300000D01*
X139025495Y-114298796D01*
X139001227Y-114295196D01*
X138977428Y-114289235D01*
X138954329Y-114280970D01*
X138932150Y-114270480D01*
X138911107Y-114257868D01*
X138891401Y-114243253D01*
X138873223Y-114226777D01*
X138856747Y-114208599D01*
X138842132Y-114188893D01*
X138829520Y-114167850D01*
X138819030Y-114145671D01*
X138810765Y-114122572D01*
X138804804Y-114098773D01*
X138801204Y-114074505D01*
X138800000Y-114050001D01*
X138800000Y-113399999D01*
X138801204Y-113375495D01*
X138804804Y-113351227D01*
X138810765Y-113327428D01*
X138819030Y-113304329D01*
X138829520Y-113282150D01*
X138842132Y-113261107D01*
X138856747Y-113241401D01*
X138873223Y-113223223D01*
X138891401Y-113206747D01*
X138911107Y-113192132D01*
X138932150Y-113179520D01*
X138954329Y-113169030D01*
X138977428Y-113160765D01*
X139001227Y-113154804D01*
X139025495Y-113151204D01*
X139049999Y-113150000D01*
X139950001Y-113150000D01*
X139974505Y-113151204D01*
X139974505Y-113151204D01*
G37*
D13*
X139500000Y-113725000D03*
D12*
G36*
X139974505Y-115201204D02*
G01*
X139998773Y-115204804D01*
X140022572Y-115210765D01*
X140045671Y-115219030D01*
X140067850Y-115229520D01*
X140088893Y-115242132D01*
X140108599Y-115256747D01*
X140126777Y-115273223D01*
X140143253Y-115291401D01*
X140157868Y-115311107D01*
X140170480Y-115332150D01*
X140180970Y-115354329D01*
X140189235Y-115377428D01*
X140195196Y-115401227D01*
X140198796Y-115425495D01*
X140200000Y-115449999D01*
X140200000Y-116100001D01*
X140198796Y-116124505D01*
X140195196Y-116148773D01*
X140189235Y-116172572D01*
X140180970Y-116195671D01*
X140170480Y-116217850D01*
X140157868Y-116238893D01*
X140143253Y-116258599D01*
X140126777Y-116276777D01*
X140108599Y-116293253D01*
X140088893Y-116307868D01*
X140067850Y-116320480D01*
X140045671Y-116330970D01*
X140022572Y-116339235D01*
X139998773Y-116345196D01*
X139974505Y-116348796D01*
X139950001Y-116350000D01*
X139049999Y-116350000D01*
X139025495Y-116348796D01*
X139001227Y-116345196D01*
X138977428Y-116339235D01*
X138954329Y-116330970D01*
X138932150Y-116320480D01*
X138911107Y-116307868D01*
X138891401Y-116293253D01*
X138873223Y-116276777D01*
X138856747Y-116258599D01*
X138842132Y-116238893D01*
X138829520Y-116217850D01*
X138819030Y-116195671D01*
X138810765Y-116172572D01*
X138804804Y-116148773D01*
X138801204Y-116124505D01*
X138800000Y-116100001D01*
X138800000Y-115449999D01*
X138801204Y-115425495D01*
X138804804Y-115401227D01*
X138810765Y-115377428D01*
X138819030Y-115354329D01*
X138829520Y-115332150D01*
X138842132Y-115311107D01*
X138856747Y-115291401D01*
X138873223Y-115273223D01*
X138891401Y-115256747D01*
X138911107Y-115242132D01*
X138932150Y-115229520D01*
X138954329Y-115219030D01*
X138977428Y-115210765D01*
X139001227Y-115204804D01*
X139025495Y-115201204D01*
X139049999Y-115200000D01*
X139950001Y-115200000D01*
X139974505Y-115201204D01*
X139974505Y-115201204D01*
G37*
D13*
X139500000Y-115775000D03*
D12*
G36*
X137474505Y-115176204D02*
G01*
X137498773Y-115179804D01*
X137522572Y-115185765D01*
X137545671Y-115194030D01*
X137567850Y-115204520D01*
X137588893Y-115217132D01*
X137608599Y-115231747D01*
X137626777Y-115248223D01*
X137643253Y-115266401D01*
X137657868Y-115286107D01*
X137670480Y-115307150D01*
X137680970Y-115329329D01*
X137689235Y-115352428D01*
X137695196Y-115376227D01*
X137698796Y-115400495D01*
X137700000Y-115424999D01*
X137700000Y-116075001D01*
X137698796Y-116099505D01*
X137695196Y-116123773D01*
X137689235Y-116147572D01*
X137680970Y-116170671D01*
X137670480Y-116192850D01*
X137657868Y-116213893D01*
X137643253Y-116233599D01*
X137626777Y-116251777D01*
X137608599Y-116268253D01*
X137588893Y-116282868D01*
X137567850Y-116295480D01*
X137545671Y-116305970D01*
X137522572Y-116314235D01*
X137498773Y-116320196D01*
X137474505Y-116323796D01*
X137450001Y-116325000D01*
X136549999Y-116325000D01*
X136525495Y-116323796D01*
X136501227Y-116320196D01*
X136477428Y-116314235D01*
X136454329Y-116305970D01*
X136432150Y-116295480D01*
X136411107Y-116282868D01*
X136391401Y-116268253D01*
X136373223Y-116251777D01*
X136356747Y-116233599D01*
X136342132Y-116213893D01*
X136329520Y-116192850D01*
X136319030Y-116170671D01*
X136310765Y-116147572D01*
X136304804Y-116123773D01*
X136301204Y-116099505D01*
X136300000Y-116075001D01*
X136300000Y-115424999D01*
X136301204Y-115400495D01*
X136304804Y-115376227D01*
X136310765Y-115352428D01*
X136319030Y-115329329D01*
X136329520Y-115307150D01*
X136342132Y-115286107D01*
X136356747Y-115266401D01*
X136373223Y-115248223D01*
X136391401Y-115231747D01*
X136411107Y-115217132D01*
X136432150Y-115204520D01*
X136454329Y-115194030D01*
X136477428Y-115185765D01*
X136501227Y-115179804D01*
X136525495Y-115176204D01*
X136549999Y-115175000D01*
X137450001Y-115175000D01*
X137474505Y-115176204D01*
X137474505Y-115176204D01*
G37*
D13*
X137000000Y-115750000D03*
D12*
G36*
X137474505Y-113126204D02*
G01*
X137498773Y-113129804D01*
X137522572Y-113135765D01*
X137545671Y-113144030D01*
X137567850Y-113154520D01*
X137588893Y-113167132D01*
X137608599Y-113181747D01*
X137626777Y-113198223D01*
X137643253Y-113216401D01*
X137657868Y-113236107D01*
X137670480Y-113257150D01*
X137680970Y-113279329D01*
X137689235Y-113302428D01*
X137695196Y-113326227D01*
X137698796Y-113350495D01*
X137700000Y-113374999D01*
X137700000Y-114025001D01*
X137698796Y-114049505D01*
X137695196Y-114073773D01*
X137689235Y-114097572D01*
X137680970Y-114120671D01*
X137670480Y-114142850D01*
X137657868Y-114163893D01*
X137643253Y-114183599D01*
X137626777Y-114201777D01*
X137608599Y-114218253D01*
X137588893Y-114232868D01*
X137567850Y-114245480D01*
X137545671Y-114255970D01*
X137522572Y-114264235D01*
X137498773Y-114270196D01*
X137474505Y-114273796D01*
X137450001Y-114275000D01*
X136549999Y-114275000D01*
X136525495Y-114273796D01*
X136501227Y-114270196D01*
X136477428Y-114264235D01*
X136454329Y-114255970D01*
X136432150Y-114245480D01*
X136411107Y-114232868D01*
X136391401Y-114218253D01*
X136373223Y-114201777D01*
X136356747Y-114183599D01*
X136342132Y-114163893D01*
X136329520Y-114142850D01*
X136319030Y-114120671D01*
X136310765Y-114097572D01*
X136304804Y-114073773D01*
X136301204Y-114049505D01*
X136300000Y-114025001D01*
X136300000Y-113374999D01*
X136301204Y-113350495D01*
X136304804Y-113326227D01*
X136310765Y-113302428D01*
X136319030Y-113279329D01*
X136329520Y-113257150D01*
X136342132Y-113236107D01*
X136356747Y-113216401D01*
X136373223Y-113198223D01*
X136391401Y-113181747D01*
X136411107Y-113167132D01*
X136432150Y-113154520D01*
X136454329Y-113144030D01*
X136477428Y-113135765D01*
X136501227Y-113129804D01*
X136525495Y-113126204D01*
X136549999Y-113125000D01*
X137450001Y-113125000D01*
X137474505Y-113126204D01*
X137474505Y-113126204D01*
G37*
D13*
X137000000Y-113700000D03*
M02*
